<?xml version="1.0" encoding="UTF-8" standalone="no"?>
<!DOCTYPE svg PUBLIC "-//W3C//DTD SVG 1.1//EN"
 "http://www.w3.org/Graphics/SVG/1.1/DTD/svg11.dtd">
<!-- Generated by graphviz version 2.40.1 (20161225.0304)
 -->
<!-- Title: dependency&#45;cruiser output Pages: 1 -->
<svg width="397pt" height="792pt"
 viewBox="0.00 0.00 397.02 792.00" xmlns="http://www.w3.org/2000/svg" xmlns:xlink="http://www.w3.org/1999/xlink">
<g id="graph0" class="graph" transform="scale(1 1) rotate(0) translate(4 788)">
<title>dependency&#45;cruiser output</title>
<polygon fill="#ffffff" stroke="transparent" points="-4,4 -4,-788 393.0174,-788 393.0174,4 -4,4"/>
<g id="clust1" class="cluster">
<title>cluster_src</title>
<path fill="#ffffff" stroke="#000000" stroke-width="2" d="M20,-8C20,-8 369.0174,-8 369.0174,-8 375.0174,-8 381.0174,-14 381.0174,-20 381.0174,-20 381.0174,-764 381.0174,-764 381.0174,-770 375.0174,-776 369.0174,-776 369.0174,-776 20,-776 20,-776 14,-776 8,-770 8,-764 8,-764 8,-20 8,-20 8,-14 14,-8 20,-8"/>
<text text-anchor="middle" x="194.5087" y="-763.9" font-family="Helvetica,sans-Serif" font-weight="bold" font-size="9.00" fill="#000000">src</text>
</g>
<g id="clust2" class="cluster">
<title>cluster_src/components</title>
<path fill="#ffffff" stroke="#000000" stroke-width="2" d="M189.504,-77C189.504,-77 352.0119,-77 352.0119,-77 358.0119,-77 364.0119,-83 364.0119,-89 364.0119,-89 364.0119,-397 364.0119,-397 364.0119,-403 358.0119,-409 352.0119,-409 352.0119,-409 189.504,-409 189.504,-409 183.504,-409 177.504,-403 177.504,-397 177.504,-397 177.504,-89 177.504,-89 177.504,-83 183.504,-77 189.504,-77"/>
<text text-anchor="middle" x="270.7579" y="-396.9" font-family="Helvetica,sans-Serif" font-weight="bold" font-size="9.00" fill="#000000">components</text>
</g>
<g id="clust3" class="cluster">
<title>cluster_src/components/content</title>
<path fill="#ffffff" stroke="#000000" stroke-width="2" d="M197.504,-329C197.504,-329 344.0119,-329 344.0119,-329 350.0119,-329 356.0119,-335 356.0119,-341 356.0119,-341 356.0119,-370 356.0119,-370 356.0119,-376 350.0119,-382 344.0119,-382 344.0119,-382 197.504,-382 197.504,-382 191.504,-382 185.504,-376 185.504,-370 185.504,-370 185.504,-341 185.504,-341 185.504,-335 191.504,-329 197.504,-329"/>
<text text-anchor="middle" x="270.7579" y="-369.9" font-family="Helvetica,sans-Serif" font-weight="bold" font-size="9.00" fill="#000000">content</text>
</g>
<g id="clust4" class="cluster">
<title>cluster_src/components/footer</title>
<path fill="#ffffff" stroke="#000000" stroke-width="2" d="M197.504,-268C197.504,-268 344.0119,-268 344.0119,-268 350.0119,-268 356.0119,-274 356.0119,-280 356.0119,-280 356.0119,-309 356.0119,-309 356.0119,-315 350.0119,-321 344.0119,-321 344.0119,-321 197.504,-321 197.504,-321 191.504,-321 185.504,-315 185.504,-309 185.504,-309 185.504,-280 185.504,-280 185.504,-274 191.504,-268 197.504,-268"/>
<text text-anchor="middle" x="270.7579" y="-308.9" font-family="Helvetica,sans-Serif" font-weight="bold" font-size="9.00" fill="#000000">footer</text>
</g>
<g id="clust5" class="cluster">
<title>cluster_src/components/header</title>
<path fill="#ffffff" stroke="#000000" stroke-width="2" d="M197.504,-207C197.504,-207 344.0119,-207 344.0119,-207 350.0119,-207 356.0119,-213 356.0119,-219 356.0119,-219 356.0119,-248 356.0119,-248 356.0119,-254 350.0119,-260 344.0119,-260 344.0119,-260 197.504,-260 197.504,-260 191.504,-260 185.504,-254 185.504,-248 185.504,-248 185.504,-219 185.504,-219 185.504,-213 191.504,-207 197.504,-207"/>
<text text-anchor="middle" x="270.7579" y="-247.9" font-family="Helvetica,sans-Serif" font-weight="bold" font-size="9.00" fill="#000000">header</text>
</g>
<g id="clust6" class="cluster">
<title>cluster_src/components/projects</title>
<path fill="#ffffff" stroke="#000000" stroke-width="2" d="M197.504,-146C197.504,-146 344.0119,-146 344.0119,-146 350.0119,-146 356.0119,-152 356.0119,-158 356.0119,-158 356.0119,-187 356.0119,-187 356.0119,-193 350.0119,-199 344.0119,-199 344.0119,-199 197.504,-199 197.504,-199 191.504,-199 185.504,-193 185.504,-187 185.504,-187 185.504,-158 185.504,-158 185.504,-152 191.504,-146 197.504,-146"/>
<text text-anchor="middle" x="270.7579" y="-186.9" font-family="Helvetica,sans-Serif" font-weight="bold" font-size="9.00" fill="#000000">projects</text>
</g>
<g id="clust7" class="cluster">
<title>cluster_src/components/skills</title>
<path fill="#ffffff" stroke="#000000" stroke-width="2" d="M197.504,-85C197.504,-85 243.504,-85 243.504,-85 249.504,-85 255.504,-91 255.504,-97 255.504,-97 255.504,-126 255.504,-126 255.504,-132 249.504,-138 243.504,-138 243.504,-138 197.504,-138 197.504,-138 191.504,-138 185.504,-132 185.504,-126 185.504,-126 185.504,-97 185.504,-97 185.504,-91 191.504,-85 197.504,-85"/>
<text text-anchor="middle" x="220.504" y="-125.9" font-family="Helvetica,sans-Serif" font-weight="bold" font-size="9.00" fill="#000000">skills</text>
</g>
<g id="clust8" class="cluster">
<title>cluster_src/files</title>
<path fill="#ffffff" stroke="#000000" stroke-width="2" d="M275.504,-16C275.504,-16 361.0174,-16 361.0174,-16 367.0174,-16 373.0174,-22 373.0174,-28 373.0174,-28 373.0174,-57 373.0174,-57 373.0174,-63 367.0174,-69 361.0174,-69 361.0174,-69 275.504,-69 275.504,-69 269.504,-69 263.504,-63 263.504,-57 263.504,-57 263.504,-28 263.504,-28 263.504,-22 269.504,-16 275.504,-16"/>
<text text-anchor="middle" x="318.2607" y="-56.9" font-family="Helvetica,sans-Serif" font-weight="bold" font-size="9.00" fill="#000000">files</text>
</g>
<g id="clust9" class="cluster">
<title>cluster_src/images</title>
<path fill="#ffffff" stroke="#000000" stroke-width="2" d="M281.7536,-417C281.7536,-417 354.7678,-417 354.7678,-417 360.7678,-417 366.7678,-423 366.7678,-429 366.7678,-429 366.7678,-737 366.7678,-737 366.7678,-743 360.7678,-749 354.7678,-749 354.7678,-749 281.7536,-749 281.7536,-749 275.7536,-749 269.7536,-743 269.7536,-737 269.7536,-737 269.7536,-429 269.7536,-429 269.7536,-423 275.7536,-417 281.7536,-417"/>
<text text-anchor="middle" x="318.2607" y="-736.9" font-family="Helvetica,sans-Serif" font-weight="bold" font-size="9.00" fill="#000000">images</text>
</g>
<!-- src/App.css -->
<g id="node1" class="node">
<title>src/App.css</title>
<g id="a_node1"><a xlink:href="src/App.css" xlink:title="App.css">
<path fill="#ffffcc" stroke="#000000" d="M241.3033,-69.3011C241.3033,-69.3011 199.7047,-69.3011 199.7047,-69.3011 196.6044,-69.3011 193.504,-66.2007 193.504,-63.1004 193.504,-63.1004 193.504,-56.8996 193.504,-56.8996 193.504,-53.7993 196.6044,-50.6989 199.7047,-50.6989 199.7047,-50.6989 241.3033,-50.6989 241.3033,-50.6989 244.4036,-50.6989 247.504,-53.7993 247.504,-56.8996 247.504,-56.8996 247.504,-63.1004 247.504,-63.1004 247.504,-66.2007 244.4036,-69.3011 241.3033,-69.3011"/>
<text text-anchor="middle" x="220.504" y="-57.3" font-family="Helvetica,sans-Serif" font-size="9.00" fill="#000000">App.css</text>
</a>
</g>
</g>
<!-- src/App.js -->
<g id="node2" class="node">
<title>src/App.js</title>
<g id="a_node2"><a xlink:href="src/App.js" xlink:title="App.js">
<path fill="#ffffcc" stroke="#000000" d="M149.0577,-294.3011C149.0577,-294.3011 107.4592,-294.3011 107.4592,-294.3011 104.3588,-294.3011 101.2584,-291.2007 101.2584,-288.1004 101.2584,-288.1004 101.2584,-281.8996 101.2584,-281.8996 101.2584,-278.7993 104.3588,-275.6989 107.4592,-275.6989 107.4592,-275.6989 149.0577,-275.6989 149.0577,-275.6989 152.1581,-275.6989 155.2584,-278.7993 155.2584,-281.8996 155.2584,-281.8996 155.2584,-288.1004 155.2584,-288.1004 155.2584,-291.2007 152.1581,-294.3011 149.0577,-294.3011"/>
<text text-anchor="middle" x="128.2584" y="-282.3" font-family="Helvetica,sans-Serif" font-size="9.00" fill="#000000">App.js</text>
</a>
</g>
</g>
<!-- src/App.js&#45;&gt;src/App.css -->
<g id="edge1" class="edge">
<title>src/App.js&#45;&gt;src/App.css</title>
<path fill="none" stroke="#000000" stroke-width="2" stroke-opacity="0.466667" d="M129.5059,-275.458C134.3552,-239.5728 152.9085,-113.1766 177.504,-82 179.5815,-79.3666 182.0596,-77.019 184.7624,-74.9322"/>
<polygon fill="#000000" fill-opacity="0.466667" stroke="#000000" stroke-width="2" stroke-opacity="0.466667" points="186.8293,-77.765 193.3689,-69.4293 183.0584,-71.8675 186.8293,-77.765"/>
</g>
<!-- src/components/content/index.js -->
<g id="node4" class="node">
<title>src/components/content/index.js</title>
<g id="a_node4"><a xlink:href="src/components/content/index.js" xlink:title="index.js">
<path fill="#ffffcc" stroke="#000000" d="M241.3033,-355.3011C241.3033,-355.3011 199.7047,-355.3011 199.7047,-355.3011 196.6044,-355.3011 193.504,-352.2007 193.504,-349.1004 193.504,-349.1004 193.504,-342.8996 193.504,-342.8996 193.504,-339.7993 196.6044,-336.6989 199.7047,-336.6989 199.7047,-336.6989 241.3033,-336.6989 241.3033,-336.6989 244.4036,-336.6989 247.504,-339.7993 247.504,-342.8996 247.504,-342.8996 247.504,-349.1004 247.504,-349.1004 247.504,-352.2007 244.4036,-355.3011 241.3033,-355.3011"/>
<text text-anchor="middle" x="220.504" y="-343.3" font-family="Helvetica,sans-Serif" font-size="9.00" fill="#000000">index.js</text>
</a>
</g>
</g>
<!-- src/App.js&#45;&gt;src/components/content/index.js -->
<g id="edge2" class="edge">
<title>src/App.js&#45;&gt;src/components/content/index.js</title>
<path fill="none" stroke="#000000" stroke-width="2" stroke-opacity="0.466667" d="M155.5992,-291.7488C160.7205,-294.0149 165.6633,-297.0213 169.504,-301 177.0207,-308.7869 170.3976,-315.837 177.504,-324 179.832,-326.6742 182.564,-329.0651 185.503,-331.1934"/>
<polygon fill="#000000" fill-opacity="0.466667" stroke="#000000" stroke-width="2" stroke-opacity="0.466667" points="183.8169,-334.2652 194.1705,-336.5133 187.4787,-328.2993 183.8169,-334.2652"/>
</g>
<!-- src/components/footer/index.js -->
<g id="node6" class="node">
<title>src/components/footer/index.js</title>
<g id="a_node6"><a xlink:href="src/components/footer/index.js" xlink:title="index.js">
<path fill="#ffffcc" stroke="#000000" d="M241.3033,-294.3011C241.3033,-294.3011 199.7047,-294.3011 199.7047,-294.3011 196.6044,-294.3011 193.504,-291.2007 193.504,-288.1004 193.504,-288.1004 193.504,-281.8996 193.504,-281.8996 193.504,-278.7993 196.6044,-275.6989 199.7047,-275.6989 199.7047,-275.6989 241.3033,-275.6989 241.3033,-275.6989 244.4036,-275.6989 247.504,-278.7993 247.504,-281.8996 247.504,-281.8996 247.504,-288.1004 247.504,-288.1004 247.504,-291.2007 244.4036,-294.3011 241.3033,-294.3011"/>
<text text-anchor="middle" x="220.504" y="-282.3" font-family="Helvetica,sans-Serif" font-size="9.00" fill="#000000">index.js</text>
</a>
</g>
</g>
<!-- src/App.js&#45;&gt;src/components/footer/index.js -->
<g id="edge3" class="edge">
<title>src/App.js&#45;&gt;src/components/footer/index.js</title>
<path fill="none" stroke="#000000" stroke-width="2" stroke-opacity="0.466667" d="M155.4362,-285C164.0856,-285 173.8107,-285 183.0538,-285"/>
<polygon fill="#000000" fill-opacity="0.466667" stroke="#000000" stroke-width="2" stroke-opacity="0.466667" points="183.2017,-288.5001 193.2017,-285 183.2017,-281.5001 183.2017,-288.5001"/>
</g>
<!-- src/components/header/index.js -->
<g id="node8" class="node">
<title>src/components/header/index.js</title>
<g id="a_node8"><a xlink:href="src/components/header/index.js" xlink:title="index.js">
<path fill="#ffffcc" stroke="#000000" d="M241.3033,-233.3011C241.3033,-233.3011 199.7047,-233.3011 199.7047,-233.3011 196.6044,-233.3011 193.504,-230.2007 193.504,-227.1004 193.504,-227.1004 193.504,-220.8996 193.504,-220.8996 193.504,-217.7993 196.6044,-214.6989 199.7047,-214.6989 199.7047,-214.6989 241.3033,-214.6989 241.3033,-214.6989 244.4036,-214.6989 247.504,-217.7993 247.504,-220.8996 247.504,-220.8996 247.504,-227.1004 247.504,-227.1004 247.504,-230.2007 244.4036,-233.3011 241.3033,-233.3011"/>
<text text-anchor="middle" x="220.504" y="-221.3" font-family="Helvetica,sans-Serif" font-size="9.00" fill="#000000">index.js</text>
</a>
</g>
</g>
<!-- src/App.js&#45;&gt;src/components/header/index.js -->
<g id="edge4" class="edge">
<title>src/App.js&#45;&gt;src/components/header/index.js</title>
<path fill="none" stroke="#000000" stroke-width="2" stroke-opacity="0.466667" d="M142.6718,-275.4688C157.4292,-265.71 180.5809,-250.4003 197.8025,-239.012"/>
<polygon fill="#000000" fill-opacity="0.466667" stroke="#000000" stroke-width="2" stroke-opacity="0.466667" points="199.7812,-241.8996 206.1918,-233.4643 195.9201,-236.0608 199.7812,-241.8996"/>
</g>
<!-- src/components/projects/index.js -->
<g id="node10" class="node">
<title>src/components/projects/index.js</title>
<g id="a_node10"><a xlink:href="src/components/projects/index.js" xlink:title="index.js">
<path fill="#ffffcc" stroke="#000000" d="M241.3033,-172.3011C241.3033,-172.3011 199.7047,-172.3011 199.7047,-172.3011 196.6044,-172.3011 193.504,-169.2007 193.504,-166.1004 193.504,-166.1004 193.504,-159.8996 193.504,-159.8996 193.504,-156.7993 196.6044,-153.6989 199.7047,-153.6989 199.7047,-153.6989 241.3033,-153.6989 241.3033,-153.6989 244.4036,-153.6989 247.504,-156.7993 247.504,-159.8996 247.504,-159.8996 247.504,-166.1004 247.504,-166.1004 247.504,-169.2007 244.4036,-172.3011 241.3033,-172.3011"/>
<text text-anchor="middle" x="220.504" y="-160.3" font-family="Helvetica,sans-Serif" font-size="9.00" fill="#000000">index.js</text>
</a>
</g>
</g>
<!-- src/App.js&#45;&gt;src/components/projects/index.js -->
<g id="edge5" class="edge">
<title>src/App.js&#45;&gt;src/components/projects/index.js</title>
<path fill="none" stroke="#000000" stroke-width="2" stroke-opacity="0.466667" d="M132.9856,-275.4921C141.011,-259.8 158.3101,-227.8458 177.504,-204 184.6084,-195.1738 193.5327,-186.3734 201.4072,-179.2017"/>
<polygon fill="#000000" fill-opacity="0.466667" stroke="#000000" stroke-width="2" stroke-opacity="0.466667" points="203.9422,-181.6321 209.113,-172.3847 199.3041,-176.3892 203.9422,-181.6321"/>
</g>
<!-- src/components/skills/index.js -->
<g id="node12" class="node">
<title>src/components/skills/index.js</title>
<g id="a_node12"><a xlink:href="src/components/skills/index.js" xlink:title="index.js">
<path fill="#ffffcc" stroke="#000000" d="M241.3033,-111.3011C241.3033,-111.3011 199.7047,-111.3011 199.7047,-111.3011 196.6044,-111.3011 193.504,-108.2007 193.504,-105.1004 193.504,-105.1004 193.504,-98.8996 193.504,-98.8996 193.504,-95.7993 196.6044,-92.6989 199.7047,-92.6989 199.7047,-92.6989 241.3033,-92.6989 241.3033,-92.6989 244.4036,-92.6989 247.504,-95.7993 247.504,-98.8996 247.504,-98.8996 247.504,-105.1004 247.504,-105.1004 247.504,-108.2007 244.4036,-111.3011 241.3033,-111.3011"/>
<text text-anchor="middle" x="220.504" y="-99.3" font-family="Helvetica,sans-Serif" font-size="9.00" fill="#000000">index.js</text>
</a>
</g>
</g>
<!-- src/App.js&#45;&gt;src/components/skills/index.js -->
<g id="edge6" class="edge">
<title>src/App.js&#45;&gt;src/components/skills/index.js</title>
<path fill="none" stroke="#000000" stroke-width="2" stroke-opacity="0.466667" d="M129.8982,-275.6951C134.3971,-251.9835 148.5705,-187.9905 177.504,-143 183.4042,-133.8255 191.7673,-125.2344 199.5518,-118.3104"/>
<polygon fill="#000000" fill-opacity="0.466667" stroke="#000000" stroke-width="2" stroke-opacity="0.466667" points="202.2377,-120.6239 207.6277,-111.5026 197.726,-115.2718 202.2377,-120.6239"/>
</g>
<!-- src/images/coffeecode.jpg -->
<g id="node15" class="node">
<title>src/images/coffeecode.jpg</title>
<g id="a_node15"><a xlink:href="src/images/coffeecode.jpg" xlink:title="coffeecode.jpg">
<path fill="#ffffcc" stroke="#000000" d="M349.0867,-660.3011C349.0867,-660.3011 287.4347,-660.3011 287.4347,-660.3011 284.3343,-660.3011 281.234,-657.2007 281.234,-654.1004 281.234,-654.1004 281.234,-647.8996 281.234,-647.8996 281.234,-644.7993 284.3343,-641.6989 287.4347,-641.6989 287.4347,-641.6989 349.0867,-641.6989 349.0867,-641.6989 352.1871,-641.6989 355.2874,-644.7993 355.2874,-647.8996 355.2874,-647.8996 355.2874,-654.1004 355.2874,-654.1004 355.2874,-657.2007 352.1871,-660.3011 349.0867,-660.3011"/>
<text text-anchor="middle" x="318.2607" y="-648.3" font-family="Helvetica,sans-Serif" font-size="9.00" fill="#000000">coffeecode.jpg</text>
</a>
</g>
</g>
<!-- src/App.js&#45;&gt;src/images/coffeecode.jpg -->
<g id="edge7" class="edge">
<title>src/App.js&#45;&gt;src/images/coffeecode.jpg</title>
<path fill="none" stroke="#000000" stroke-width="2" stroke-opacity="0.466667" d="M155.5323,-290.7034C160.9151,-293.0444 165.9814,-296.3455 169.504,-301 180.8198,-315.9518 173.5284,-366.6752 177.504,-385 200.033,-488.8427 221.3692,-510.3735 255.504,-611 259.1159,-621.6477 255.406,-627.1998 263.504,-635 266.0418,-637.4445 268.9318,-639.5185 272.0271,-641.2779"/>
<polygon fill="#000000" fill-opacity="0.466667" stroke="#000000" stroke-width="2" stroke-opacity="0.466667" points="270.6213,-644.4835 281.172,-645.4493 273.5264,-638.1148 270.6213,-644.4835"/>
</g>
<!-- src/images/porto.jpg -->
<g id="node21" class="node">
<title>src/images/porto.jpg</title>
<g id="a_node21"><a xlink:href="src/images/porto.jpg" xlink:title="porto.jpg">
<path fill="#ffffcc" stroke="#000000" d="M339.06,-691.3011C339.06,-691.3011 297.4614,-691.3011 297.4614,-691.3011 294.3611,-691.3011 291.2607,-688.2007 291.2607,-685.1004 291.2607,-685.1004 291.2607,-678.8996 291.2607,-678.8996 291.2607,-675.7993 294.3611,-672.6989 297.4614,-672.6989 297.4614,-672.6989 339.06,-672.6989 339.06,-672.6989 342.1603,-672.6989 345.2607,-675.7993 345.2607,-678.8996 345.2607,-678.8996 345.2607,-685.1004 345.2607,-685.1004 345.2607,-688.2007 342.1603,-691.3011 339.06,-691.3011"/>
<text text-anchor="middle" x="318.2607" y="-679.3" font-family="Helvetica,sans-Serif" font-size="9.00" fill="#000000">porto.jpg</text>
</a>
</g>
</g>
<!-- src/App.js&#45;&gt;src/images/porto.jpg -->
<g id="edge8" class="edge">
<title>src/App.js&#45;&gt;src/images/porto.jpg</title>
<path fill="none" stroke="#000000" stroke-width="2" stroke-opacity="0.466667" d="M155.2998,-290.3786C160.8326,-292.7355 166.0218,-296.1251 169.504,-301 182.4955,-319.1876 171.7283,-480.4081 177.504,-502 198.7717,-581.5073 199.8223,-613.862 263.504,-666 268.6335,-670.1997 274.8242,-673.297 281.1704,-675.5814"/>
<polygon fill="#000000" fill-opacity="0.466667" stroke="#000000" stroke-width="2" stroke-opacity="0.466667" points="280.5583,-679.0507 291.141,-678.5435 282.5518,-672.3405 280.5583,-679.0507"/>
</g>
<!-- src/images/wallpaper1.jpg -->
<g id="node23" class="node">
<title>src/images/wallpaper1.jpg</title>
<g id="a_node23"><a xlink:href="src/images/wallpaper1.jpg" xlink:title="wallpaper1.jpg">
<path fill="#ffffcc" stroke="#000000" d="M349.0704,-722.3011C349.0704,-722.3011 287.451,-722.3011 287.451,-722.3011 284.3507,-722.3011 281.2503,-719.2007 281.2503,-716.1004 281.2503,-716.1004 281.2503,-709.8996 281.2503,-709.8996 281.2503,-706.7993 284.3507,-703.6989 287.451,-703.6989 287.451,-703.6989 349.0704,-703.6989 349.0704,-703.6989 352.1707,-703.6989 355.2711,-706.7993 355.2711,-709.8996 355.2711,-709.8996 355.2711,-716.1004 355.2711,-716.1004 355.2711,-719.2007 352.1707,-722.3011 349.0704,-722.3011"/>
<text text-anchor="middle" x="318.2607" y="-710.3" font-family="Helvetica,sans-Serif" font-size="9.00" fill="#000000">wallpaper1.jpg</text>
</a>
</g>
</g>
<!-- src/App.js&#45;&gt;src/images/wallpaper1.jpg -->
<g id="edge9" class="edge">
<title>src/App.js&#45;&gt;src/images/wallpaper1.jpg</title>
<path fill="none" stroke="#000000" stroke-width="2" stroke-opacity="0.466667" d="M155.3402,-290.3499C160.8714,-292.7079 166.0497,-296.1053 169.504,-301 187.5779,-326.6106 167.1294,-553.4207 177.504,-583 198.5097,-642.89 211.2803,-660.9342 263.504,-697 266.0698,-698.7719 268.8327,-700.35 271.7054,-701.7552"/>
<polygon fill="#000000" fill-opacity="0.466667" stroke="#000000" stroke-width="2" stroke-opacity="0.466667" points="270.5701,-705.0736 281.1476,-705.6797 273.2568,-698.6097 270.5701,-705.0736"/>
</g>
<!-- src/App.test.js -->
<g id="node3" class="node">
<title>src/App.test.js</title>
<g id="a_node3"><a xlink:href="src/App.test.js" xlink:title="App.test.js">
<path fill="#ffffcc" stroke="#000000" d="M67.8186,-294.3011C67.8186,-294.3011 22.1943,-294.3011 22.1943,-294.3011 19.0939,-294.3011 15.9935,-291.2007 15.9935,-288.1004 15.9935,-288.1004 15.9935,-281.8996 15.9935,-281.8996 15.9935,-278.7993 19.0939,-275.6989 22.1943,-275.6989 22.1943,-275.6989 67.8186,-275.6989 67.8186,-275.6989 70.919,-275.6989 74.0194,-278.7993 74.0194,-281.8996 74.0194,-281.8996 74.0194,-288.1004 74.0194,-288.1004 74.0194,-291.2007 70.919,-294.3011 67.8186,-294.3011"/>
<text text-anchor="middle" x="45.0064" y="-282.3" font-family="Helvetica,sans-Serif" font-size="9.00" fill="#000000">App.test.js</text>
</a>
</g>
</g>
<!-- src/App.test.js&#45;&gt;src/App.js -->
<g id="edge10" class="edge">
<title>src/App.test.js&#45;&gt;src/App.js</title>
<path fill="none" stroke="#000000" stroke-width="2" stroke-opacity="0.466667" d="M74.124,-285C79.6335,-285 85.4653,-285 91.1813,-285"/>
<polygon fill="#000000" fill-opacity="0.466667" stroke="#000000" stroke-width="2" stroke-opacity="0.466667" points="91.2505,-288.5001 101.2505,-285 91.2504,-281.5001 91.2505,-288.5001"/>
</g>
<!-- src/components/content/styles.scss -->
<g id="node5" class="node">
<title>src/components/content/styles.scss</title>
<g id="a_node5"><a xlink:href="src/components/content/styles.scss" xlink:title="styles.scss">
<path fill="#ffffcc" stroke="#000000" d="M341.5645,-355.3011C341.5645,-355.3011 294.9569,-355.3011 294.9569,-355.3011 291.8566,-355.3011 288.7562,-352.2007 288.7562,-349.1004 288.7562,-349.1004 288.7562,-342.8996 288.7562,-342.8996 288.7562,-339.7993 291.8566,-336.6989 294.9569,-336.6989 294.9569,-336.6989 341.5645,-336.6989 341.5645,-336.6989 344.6648,-336.6989 347.7652,-339.7993 347.7652,-342.8996 347.7652,-342.8996 347.7652,-349.1004 347.7652,-349.1004 347.7652,-352.2007 344.6648,-355.3011 341.5645,-355.3011"/>
<text text-anchor="middle" x="318.2607" y="-343.3" font-family="Helvetica,sans-Serif" font-size="9.00" fill="#000000">styles.scss</text>
</a>
</g>
</g>
<!-- src/components/content/index.js&#45;&gt;src/components/content/styles.scss -->
<g id="edge15" class="edge">
<title>src/components/content/index.js&#45;&gt;src/components/content/styles.scss</title>
<path fill="none" stroke="#000000" stroke-width="2" stroke-opacity="0.466667" d="M247.7347,-346C257.2258,-346 268.0817,-346 278.3848,-346"/>
<polygon fill="#000000" fill-opacity="0.466667" stroke="#000000" stroke-width="2" stroke-opacity="0.466667" points="278.4326,-349.5001 288.4326,-346 278.4325,-342.5001 278.4326,-349.5001"/>
</g>
<!-- src/files/Alexis_Resume.pdf -->
<g id="node13" class="node">
<title>src/files/Alexis_Resume.pdf</title>
<g id="a_node13"><a xlink:href="src/files/Alexis_Resume.pdf" xlink:title="Alexis_Resume.pdf">
<path fill="#ffffcc" stroke="#000000" d="M358.5747,-42.3011C358.5747,-42.3011 277.9467,-42.3011 277.9467,-42.3011 274.8464,-42.3011 271.746,-39.2007 271.746,-36.1004 271.746,-36.1004 271.746,-29.8996 271.746,-29.8996 271.746,-26.7993 274.8464,-23.6989 277.9467,-23.6989 277.9467,-23.6989 358.5747,-23.6989 358.5747,-23.6989 361.675,-23.6989 364.7754,-26.7993 364.7754,-29.8996 364.7754,-29.8996 364.7754,-36.1004 364.7754,-36.1004 364.7754,-39.2007 361.675,-42.3011 358.5747,-42.3011"/>
<text text-anchor="middle" x="318.2607" y="-30.3" font-family="Helvetica,sans-Serif" font-size="9.00" fill="#000000">Alexis_Resume.pdf</text>
</a>
</g>
</g>
<!-- src/components/content/index.js&#45;&gt;src/files/Alexis_Resume.pdf -->
<g id="edge11" class="edge">
<title>src/components/content/index.js&#45;&gt;src/files/Alexis_Resume.pdf</title>
<path fill="none" stroke="#000000" stroke-width="2" stroke-opacity="0.466667" d="M242.5665,-336.6086C247.662,-333.371 252.4724,-329.2111 255.504,-324 265.6269,-306.5996 258.4646,-162.4898 263.504,-143 272.4418,-108.4332 293.0973,-72.0476 306.3288,-50.9961"/>
<polygon fill="#000000" fill-opacity="0.466667" stroke="#000000" stroke-width="2" stroke-opacity="0.466667" points="309.3504,-52.7682 311.8169,-42.4645 303.4633,-48.9812 309.3504,-52.7682"/>
</g>
<!-- src/images/email.png -->
<g id="node16" class="node">
<title>src/images/email.png</title>
<g id="a_node16"><a xlink:href="src/images/email.png" xlink:title="email.png">
<path fill="#ffffcc" stroke="#000000" d="M339.5669,-598.3011C339.5669,-598.3011 296.9545,-598.3011 296.9545,-598.3011 293.8542,-598.3011 290.7538,-595.2007 290.7538,-592.1004 290.7538,-592.1004 290.7538,-585.8996 290.7538,-585.8996 290.7538,-582.7993 293.8542,-579.6989 296.9545,-579.6989 296.9545,-579.6989 339.5669,-579.6989 339.5669,-579.6989 342.6672,-579.6989 345.7676,-582.7993 345.7676,-585.8996 345.7676,-585.8996 345.7676,-592.1004 345.7676,-592.1004 345.7676,-595.2007 342.6672,-598.3011 339.5669,-598.3011"/>
<text text-anchor="middle" x="318.2607" y="-586.3" font-family="Helvetica,sans-Serif" font-size="9.00" fill="#000000">email.png</text>
</a>
</g>
</g>
<!-- src/components/content/index.js&#45;&gt;src/images/email.png -->
<g id="edge12" class="edge">
<title>src/components/content/index.js&#45;&gt;src/images/email.png</title>
<path fill="none" stroke="#000000" stroke-width="2" stroke-opacity="0.466667" d="M247.657,-352.2115C250.709,-353.946 253.4524,-356.164 255.504,-359 269.4504,-378.2788 248.8789,-554.2309 263.504,-573 267.8394,-578.5638 274.0004,-582.2702 280.6358,-584.7221"/>
<polygon fill="#000000" fill-opacity="0.466667" stroke="#000000" stroke-width="2" stroke-opacity="0.466667" points="279.9665,-588.169 290.5394,-587.4869 281.8488,-581.4268 279.9665,-588.169"/>
</g>
<!-- src/images/github.png -->
<g id="node17" class="node">
<title>src/images/github.png</title>
<g id="a_node17"><a xlink:href="src/images/github.png" xlink:title="github.png">
<path fill="#ffffcc" stroke="#000000" d="M341.081,-567.3011C341.081,-567.3011 295.4404,-567.3011 295.4404,-567.3011 292.34,-567.3011 289.2397,-564.2007 289.2397,-561.1004 289.2397,-561.1004 289.2397,-554.8996 289.2397,-554.8996 289.2397,-551.7993 292.34,-548.6989 295.4404,-548.6989 295.4404,-548.6989 341.081,-548.6989 341.081,-548.6989 344.1814,-548.6989 347.2817,-551.7993 347.2817,-554.8996 347.2817,-554.8996 347.2817,-561.1004 347.2817,-561.1004 347.2817,-564.2007 344.1814,-567.3011 341.081,-567.3011"/>
<text text-anchor="middle" x="318.2607" y="-555.3" font-family="Helvetica,sans-Serif" font-size="9.00" fill="#000000">github.png</text>
</a>
</g>
</g>
<!-- src/components/content/index.js&#45;&gt;src/images/github.png -->
<g id="edge13" class="edge">
<title>src/components/content/index.js&#45;&gt;src/images/github.png</title>
<path fill="none" stroke="#000000" stroke-width="2" stroke-opacity="0.466667" d="M247.6403,-352.2236C250.6949,-353.9563 253.4435,-356.1705 255.504,-359 267.4852,-375.4525 250.9436,-525.9853 263.504,-542 267.5551,-547.1653 273.1791,-550.7284 279.2899,-553.1728"/>
<polygon fill="#000000" fill-opacity="0.466667" stroke="#000000" stroke-width="2" stroke-opacity="0.466667" points="278.5517,-556.6063 289.1373,-556.1625 280.5854,-549.9082 278.5517,-556.6063"/>
</g>
<!-- src/images/linkedin.png -->
<g id="node18" class="node">
<title>src/images/linkedin.png</title>
<g id="a_node18"><a xlink:href="src/images/linkedin.png" xlink:title="linkedin.png">
<path fill="#ffffcc" stroke="#000000" d="M344.0741,-629.3011C344.0741,-629.3011 292.4473,-629.3011 292.4473,-629.3011 289.3469,-629.3011 286.2466,-626.2007 286.2466,-623.1004 286.2466,-623.1004 286.2466,-616.8996 286.2466,-616.8996 286.2466,-613.7993 289.3469,-610.6989 292.4473,-610.6989 292.4473,-610.6989 344.0741,-610.6989 344.0741,-610.6989 347.1745,-610.6989 350.2748,-613.7993 350.2748,-616.8996 350.2748,-616.8996 350.2748,-623.1004 350.2748,-623.1004 350.2748,-626.2007 347.1745,-629.3011 344.0741,-629.3011"/>
<text text-anchor="middle" x="318.2607" y="-617.3" font-family="Helvetica,sans-Serif" font-size="9.00" fill="#000000">linkedin.png</text>
</a>
</g>
</g>
<!-- src/components/content/index.js&#45;&gt;src/images/linkedin.png -->
<g id="edge14" class="edge">
<title>src/components/content/index.js&#45;&gt;src/images/linkedin.png</title>
<path fill="none" stroke="#000000" stroke-width="2" stroke-opacity="0.466667" d="M247.6695,-352.2024C250.7196,-353.9384 253.4591,-356.1592 255.504,-359 271.4159,-381.1055 246.8138,-582.4761 263.504,-604 266.9557,-608.4514 271.5764,-611.7146 276.6763,-614.0978"/>
<polygon fill="#000000" fill-opacity="0.466667" stroke="#000000" stroke-width="2" stroke-opacity="0.466667" points="275.63,-617.4406 286.2247,-617.504 277.982,-610.8475 275.63,-617.4406"/>
</g>
<!-- src/components/footer/styles.scss -->
<g id="node7" class="node">
<title>src/components/footer/styles.scss</title>
<g id="a_node7"><a xlink:href="src/components/footer/styles.scss" xlink:title="styles.scss">
<path fill="#ffffcc" stroke="#000000" d="M341.5645,-294.3011C341.5645,-294.3011 294.9569,-294.3011 294.9569,-294.3011 291.8566,-294.3011 288.7562,-291.2007 288.7562,-288.1004 288.7562,-288.1004 288.7562,-281.8996 288.7562,-281.8996 288.7562,-278.7993 291.8566,-275.6989 294.9569,-275.6989 294.9569,-275.6989 341.5645,-275.6989 341.5645,-275.6989 344.6648,-275.6989 347.7652,-278.7993 347.7652,-281.8996 347.7652,-281.8996 347.7652,-288.1004 347.7652,-288.1004 347.7652,-291.2007 344.6648,-294.3011 341.5645,-294.3011"/>
<text text-anchor="middle" x="318.2607" y="-282.3" font-family="Helvetica,sans-Serif" font-size="9.00" fill="#000000">styles.scss</text>
</a>
</g>
</g>
<!-- src/components/footer/index.js&#45;&gt;src/components/footer/styles.scss -->
<g id="edge17" class="edge">
<title>src/components/footer/index.js&#45;&gt;src/components/footer/styles.scss</title>
<path fill="none" stroke="#000000" stroke-width="2" stroke-opacity="0.466667" d="M247.7347,-285C257.2258,-285 268.0817,-285 278.3848,-285"/>
<polygon fill="#000000" fill-opacity="0.466667" stroke="#000000" stroke-width="2" stroke-opacity="0.466667" points="278.4326,-288.5001 288.4326,-285 278.4325,-281.5001 278.4326,-288.5001"/>
</g>
<!-- src/components/footer/index.js&#45;&gt;src/files/Alexis_Resume.pdf -->
<g id="edge16" class="edge">
<title>src/components/footer/index.js&#45;&gt;src/files/Alexis_Resume.pdf</title>
<path fill="none" stroke="#000000" stroke-width="2" stroke-opacity="0.466667" d="M242.4877,-275.5622C247.5838,-272.325 252.4142,-268.1768 255.504,-263 269.2012,-240.0509 256.5243,-168.7984 263.504,-143 272.8283,-108.5355 293.365,-72.1184 306.4678,-51.0329"/>
<polygon fill="#000000" fill-opacity="0.466667" stroke="#000000" stroke-width="2" stroke-opacity="0.466667" points="309.4896,-52.8034 311.8979,-42.4859 303.5811,-49.0496 309.4896,-52.8034"/>
</g>
<!-- src/components/header/styles.scss -->
<g id="node9" class="node">
<title>src/components/header/styles.scss</title>
<g id="a_node9"><a xlink:href="src/components/header/styles.scss" xlink:title="styles.scss">
<path fill="#ffffcc" stroke="#000000" d="M341.5645,-233.3011C341.5645,-233.3011 294.9569,-233.3011 294.9569,-233.3011 291.8566,-233.3011 288.7562,-230.2007 288.7562,-227.1004 288.7562,-227.1004 288.7562,-220.8996 288.7562,-220.8996 288.7562,-217.7993 291.8566,-214.6989 294.9569,-214.6989 294.9569,-214.6989 341.5645,-214.6989 341.5645,-214.6989 344.6648,-214.6989 347.7652,-217.7993 347.7652,-220.8996 347.7652,-220.8996 347.7652,-227.1004 347.7652,-227.1004 347.7652,-230.2007 344.6648,-233.3011 341.5645,-233.3011"/>
<text text-anchor="middle" x="318.2607" y="-221.3" font-family="Helvetica,sans-Serif" font-size="9.00" fill="#000000">styles.scss</text>
</a>
</g>
</g>
<!-- src/components/header/index.js&#45;&gt;src/components/header/styles.scss -->
<g id="edge19" class="edge">
<title>src/components/header/index.js&#45;&gt;src/components/header/styles.scss</title>
<path fill="none" stroke="#000000" stroke-width="2" stroke-opacity="0.466667" d="M247.7347,-224C257.2258,-224 268.0817,-224 278.3848,-224"/>
<polygon fill="#000000" fill-opacity="0.466667" stroke="#000000" stroke-width="2" stroke-opacity="0.466667" points="278.4326,-227.5001 288.4326,-224 278.4325,-220.5001 278.4326,-227.5001"/>
</g>
<!-- src/images/alexislogo.png -->
<g id="node14" class="node">
<title>src/images/alexislogo.png</title>
<g id="a_node14"><a xlink:href="src/images/alexislogo.png" xlink:title="alexislogo.png">
<path fill="#ffffcc" stroke="#000000" d="M348.5788,-536.3011C348.5788,-536.3011 287.9426,-536.3011 287.9426,-536.3011 284.8423,-536.3011 281.7419,-533.2007 281.7419,-530.1004 281.7419,-530.1004 281.7419,-523.8996 281.7419,-523.8996 281.7419,-520.7993 284.8423,-517.6989 287.9426,-517.6989 287.9426,-517.6989 348.5788,-517.6989 348.5788,-517.6989 351.6791,-517.6989 354.7795,-520.7993 354.7795,-523.8996 354.7795,-523.8996 354.7795,-530.1004 354.7795,-530.1004 354.7795,-533.2007 351.6791,-536.3011 348.5788,-536.3011"/>
<text text-anchor="middle" x="318.2607" y="-524.3" font-family="Helvetica,sans-Serif" font-size="9.00" fill="#000000">alexislogo.png</text>
</a>
</g>
</g>
<!-- src/components/header/index.js&#45;&gt;src/images/alexislogo.png -->
<g id="edge18" class="edge">
<title>src/components/header/index.js&#45;&gt;src/images/alexislogo.png</title>
<path fill="none" stroke="#000000" stroke-width="2" stroke-opacity="0.466667" d="M231.9446,-233.4601C240.1704,-241.0313 250.6361,-252.433 255.504,-265 265.3822,-290.5014 246.7472,-489.3872 263.504,-511 265.993,-514.2103 269.09,-516.8026 272.5363,-518.8925"/>
<polygon fill="#000000" fill-opacity="0.466667" stroke="#000000" stroke-width="2" stroke-opacity="0.466667" points="271.1295,-522.0981 281.6751,-523.1187 274.0677,-515.7445 271.1295,-522.0981"/>
</g>
<!-- src/components/projects/styles.scss -->
<g id="node11" class="node">
<title>src/components/projects/styles.scss</title>
<g id="a_node11"><a xlink:href="src/components/projects/styles.scss" xlink:title="styles.scss">
<path fill="#ffffcc" stroke="#000000" d="M341.5645,-172.3011C341.5645,-172.3011 294.9569,-172.3011 294.9569,-172.3011 291.8566,-172.3011 288.7562,-169.2007 288.7562,-166.1004 288.7562,-166.1004 288.7562,-159.8996 288.7562,-159.8996 288.7562,-156.7993 291.8566,-153.6989 294.9569,-153.6989 294.9569,-153.6989 341.5645,-153.6989 341.5645,-153.6989 344.6648,-153.6989 347.7652,-156.7993 347.7652,-159.8996 347.7652,-159.8996 347.7652,-166.1004 347.7652,-166.1004 347.7652,-169.2007 344.6648,-172.3011 341.5645,-172.3011"/>
<text text-anchor="middle" x="318.2607" y="-160.3" font-family="Helvetica,sans-Serif" font-size="9.00" fill="#000000">styles.scss</text>
</a>
</g>
</g>
<!-- src/components/projects/index.js&#45;&gt;src/components/projects/styles.scss -->
<g id="edge23" class="edge">
<title>src/components/projects/index.js&#45;&gt;src/components/projects/styles.scss</title>
<path fill="none" stroke="#000000" stroke-width="2" stroke-opacity="0.466667" d="M247.7347,-163C257.2258,-163 268.0817,-163 278.3848,-163"/>
<polygon fill="#000000" fill-opacity="0.466667" stroke="#000000" stroke-width="2" stroke-opacity="0.466667" points="278.4326,-166.5001 288.4326,-163 278.4325,-159.5001 278.4326,-166.5001"/>
</g>
<!-- src/images/moviesapi.png -->
<g id="node19" class="node">
<title>src/images/moviesapi.png</title>
<g id="a_node19"><a xlink:href="src/images/moviesapi.png" xlink:title="moviesapi.png">
<path fill="#ffffcc" stroke="#000000" d="M349.0731,-474.3011C349.0731,-474.3011 287.4483,-474.3011 287.4483,-474.3011 284.3479,-474.3011 281.2476,-471.2007 281.2476,-468.1004 281.2476,-468.1004 281.2476,-461.8996 281.2476,-461.8996 281.2476,-458.7993 284.3479,-455.6989 287.4483,-455.6989 287.4483,-455.6989 349.0731,-455.6989 349.0731,-455.6989 352.1735,-455.6989 355.2738,-458.7993 355.2738,-461.8996 355.2738,-461.8996 355.2738,-468.1004 355.2738,-468.1004 355.2738,-471.2007 352.1735,-474.3011 349.0731,-474.3011"/>
<text text-anchor="middle" x="318.2607" y="-462.3" font-family="Helvetica,sans-Serif" font-size="9.00" fill="#000000">moviesapi.png</text>
</a>
</g>
</g>
<!-- src/components/projects/index.js&#45;&gt;src/images/moviesapi.png -->
<g id="edge20" class="edge">
<title>src/components/projects/index.js&#45;&gt;src/images/moviesapi.png</title>
<path fill="none" stroke="#000000" stroke-width="2" stroke-opacity="0.466667" d="M231.9441,-172.4603C240.1696,-180.0315 250.6352,-191.4334 255.504,-204 265.3438,-229.3972 246.8138,-427.4761 263.504,-449 265.8576,-452.0352 268.7547,-454.5181 271.9767,-456.5462"/>
<polygon fill="#000000" fill-opacity="0.466667" stroke="#000000" stroke-width="2" stroke-opacity="0.466667" points="270.5828,-459.7592 281.1139,-460.9198 273.605,-453.4452 270.5828,-459.7592"/>
</g>
<!-- src/images/my_website.png -->
<g id="node20" class="node">
<title>src/images/my_website.png</title>
<g id="a_node20"><a xlink:href="src/images/my_website.png" xlink:title="my_website.png">
<path fill="#ffffcc" stroke="#000000" d="M352.5742,-443.3011C352.5742,-443.3011 283.9472,-443.3011 283.9472,-443.3011 280.8468,-443.3011 277.7465,-440.2007 277.7465,-437.1004 277.7465,-437.1004 277.7465,-430.8996 277.7465,-430.8996 277.7465,-427.7993 280.8468,-424.6989 283.9472,-424.6989 283.9472,-424.6989 352.5742,-424.6989 352.5742,-424.6989 355.6746,-424.6989 358.7749,-427.7993 358.7749,-430.8996 358.7749,-430.8996 358.7749,-437.1004 358.7749,-437.1004 358.7749,-440.2007 355.6746,-443.3011 352.5742,-443.3011"/>
<text text-anchor="middle" x="318.2607" y="-431.3" font-family="Helvetica,sans-Serif" font-size="9.00" fill="#000000">my_website.png</text>
</a>
</g>
</g>
<!-- src/components/projects/index.js&#45;&gt;src/images/my_website.png -->
<g id="edge21" class="edge">
<title>src/components/projects/index.js&#45;&gt;src/images/my_website.png</title>
<path fill="none" stroke="#000000" stroke-width="2" stroke-opacity="0.466667" d="M231.9026,-172.4765C240.1063,-180.0563 250.5629,-191.4616 255.504,-204 270.2654,-241.4578 246.2641,-348.6163 263.504,-385 270.0334,-398.7799 282.4031,-410.3742 293.7357,-418.8198"/>
<polygon fill="#000000" fill-opacity="0.466667" stroke="#000000" stroke-width="2" stroke-opacity="0.466667" points="291.8825,-421.7945 302.0857,-424.6484 295.8892,-416.0546 291.8825,-421.7945"/>
</g>
<!-- src/images/todoapp.png -->
<g id="node22" class="node">
<title>src/images/todoapp.png</title>
<g id="a_node22"><a xlink:href="src/images/todoapp.png" xlink:title="todoapp.png">
<path fill="#ffffcc" stroke="#000000" d="M345.0901,-505.3011C345.0901,-505.3011 291.4313,-505.3011 291.4313,-505.3011 288.3309,-505.3011 285.2306,-502.2007 285.2306,-499.1004 285.2306,-499.1004 285.2306,-492.8996 285.2306,-492.8996 285.2306,-489.7993 288.3309,-486.6989 291.4313,-486.6989 291.4313,-486.6989 345.0901,-486.6989 345.0901,-486.6989 348.1905,-486.6989 351.2908,-489.7993 351.2908,-492.8996 351.2908,-492.8996 351.2908,-499.1004 351.2908,-499.1004 351.2908,-502.2007 348.1905,-505.3011 345.0901,-505.3011"/>
<text text-anchor="middle" x="318.2607" y="-493.3" font-family="Helvetica,sans-Serif" font-size="9.00" fill="#000000">todoapp.png</text>
</a>
</g>
</g>
<!-- src/components/projects/index.js&#45;&gt;src/images/todoapp.png -->
<g id="edge22" class="edge">
<title>src/components/projects/index.js&#45;&gt;src/images/todoapp.png</title>
<path fill="none" stroke="#000000" stroke-width="2" stroke-opacity="0.466667" d="M231.9573,-172.4552C240.1898,-180.0238 250.6583,-191.4245 255.504,-204 266.5351,-232.6278 244.7486,-455.721 263.504,-480 266.7139,-484.1552 270.9426,-487.2756 275.6306,-489.6115"/>
<polygon fill="#000000" fill-opacity="0.466667" stroke="#000000" stroke-width="2" stroke-opacity="0.466667" points="274.4736,-492.9161 285.0646,-493.2027 276.964,-486.374 274.4736,-492.9161"/>
</g>
<!-- src/index.css -->
<g id="node24" class="node">
<title>src/index.css</title>
<g id="a_node24"><a xlink:href="src/index.css" xlink:title="index.css">
<path fill="#ffffcc" stroke="#000000" d="M149.0577,-325.3011C149.0577,-325.3011 107.4592,-325.3011 107.4592,-325.3011 104.3588,-325.3011 101.2584,-322.2007 101.2584,-319.1004 101.2584,-319.1004 101.2584,-312.8996 101.2584,-312.8996 101.2584,-309.7993 104.3588,-306.6989 107.4592,-306.6989 107.4592,-306.6989 149.0577,-306.6989 149.0577,-306.6989 152.1581,-306.6989 155.2584,-309.7993 155.2584,-312.8996 155.2584,-312.8996 155.2584,-319.1004 155.2584,-319.1004 155.2584,-322.2007 152.1581,-325.3011 149.0577,-325.3011"/>
<text text-anchor="middle" x="128.2584" y="-313.3" font-family="Helvetica,sans-Serif" font-size="9.00" fill="#000000">index.css</text>
</a>
</g>
</g>
<!-- src/index.js -->
<g id="node25" class="node">
<title>src/index.js</title>
<g id="a_node25"><a xlink:href="src/index.js" xlink:title="index.js">
<path fill="#ffffcc" stroke="#000000" d="M65.8057,-325.3011C65.8057,-325.3011 24.2072,-325.3011 24.2072,-325.3011 21.1068,-325.3011 18.0064,-322.2007 18.0064,-319.1004 18.0064,-319.1004 18.0064,-312.8996 18.0064,-312.8996 18.0064,-309.7993 21.1068,-306.6989 24.2072,-306.6989 24.2072,-306.6989 65.8057,-306.6989 65.8057,-306.6989 68.9061,-306.6989 72.0064,-309.7993 72.0064,-312.8996 72.0064,-312.8996 72.0064,-319.1004 72.0064,-319.1004 72.0064,-322.2007 68.9061,-325.3011 65.8057,-325.3011"/>
<text text-anchor="middle" x="45.0064" y="-313.3" font-family="Helvetica,sans-Serif" font-size="9.00" fill="#000000">index.js</text>
</a>
</g>
</g>
<!-- src/index.js&#45;&gt;src/App.js -->
<g id="edge24" class="edge">
<title>src/index.js&#45;&gt;src/App.js</title>
<path fill="none" stroke="#000000" stroke-width="2" stroke-opacity="0.466667" d="M70.4372,-306.5305C77.7668,-303.8012 85.8901,-300.7764 93.675,-297.8776"/>
<polygon fill="#000000" fill-opacity="0.466667" stroke="#000000" stroke-width="2" stroke-opacity="0.466667" points="95.1195,-301.0746 103.2695,-294.305 92.6768,-294.5146 95.1195,-301.0746"/>
</g>
<!-- src/index.js&#45;&gt;src/index.css -->
<g id="edge25" class="edge">
<title>src/index.js&#45;&gt;src/index.css</title>
<path fill="none" stroke="#000000" stroke-width="2" stroke-opacity="0.466667" d="M72.2663,-316C78.2206,-316 84.622,-316 90.893,-316"/>
<polygon fill="#000000" fill-opacity="0.466667" stroke="#000000" stroke-width="2" stroke-opacity="0.466667" points="91.2218,-319.5001 101.2217,-316 91.2217,-312.5001 91.2218,-319.5001"/>
</g>
<!-- src/serviceWorker.js -->
<g id="node26" class="node">
<title>src/serviceWorker.js</title>
<g id="a_node26"><a xlink:href="src/serviceWorker.js" xlink:title="serviceWorker.js">
<path fill="#ffffcc" stroke="#000000" d="M163.5503,-356.3011C163.5503,-356.3011 92.9666,-356.3011 92.9666,-356.3011 89.8662,-356.3011 86.7659,-353.2007 86.7659,-350.1004 86.7659,-350.1004 86.7659,-343.8996 86.7659,-343.8996 86.7659,-340.7993 89.8662,-337.6989 92.9666,-337.6989 92.9666,-337.6989 163.5503,-337.6989 163.5503,-337.6989 166.6507,-337.6989 169.751,-340.7993 169.751,-343.8996 169.751,-343.8996 169.751,-350.1004 169.751,-350.1004 169.751,-353.2007 166.6507,-356.3011 163.5503,-356.3011"/>
<text text-anchor="middle" x="128.2584" y="-344.3" font-family="Helvetica,sans-Serif" font-size="9.00" fill="#000000">serviceWorker.js</text>
</a>
</g>
</g>
<!-- src/index.js&#45;&gt;src/serviceWorker.js -->
<g id="edge26" class="edge">
<title>src/index.js&#45;&gt;src/serviceWorker.js</title>
<path fill="none" stroke="#000000" stroke-width="2" stroke-opacity="0.466667" d="M70.4372,-325.4695C77.7668,-328.1988 85.8901,-331.2236 93.675,-334.1224"/>
<polygon fill="#000000" fill-opacity="0.466667" stroke="#000000" stroke-width="2" stroke-opacity="0.466667" points="92.6768,-337.4854 103.2695,-337.695 95.1195,-330.9254 92.6768,-337.4854"/>
</g>
</g>
</svg>
