<?xml version="1.0" encoding="UTF-8" standalone="no"?>
<!DOCTYPE svg PUBLIC "-//W3C//DTD SVG 1.1//EN"
 "http://www.w3.org/Graphics/SVG/1.1/DTD/svg11.dtd">
<!-- Generated by graphviz version 2.40.1 (20161225.0304)
 -->
<!-- Title: dependency&#45;cruiser output Pages: 1 -->
<svg width="371pt" height="546pt"
 viewBox="0.00 0.00 370.52 546.00" xmlns="http://www.w3.org/2000/svg" xmlns:xlink="http://www.w3.org/1999/xlink">
<g id="graph0" class="graph" transform="scale(1 1) rotate(0) translate(4 542)">
<title>dependency&#45;cruiser output</title>
<polygon fill="#ffffff" stroke="transparent" points="-4,4 -4,-542 366.5178,-542 366.5178,4 -4,4"/>
<g id="clust1" class="cluster">
<title>cluster_src</title>
<path fill="#ffffff" stroke="#000000" stroke-width="2" d="M20,-8C20,-8 342.5178,-8 342.5178,-8 348.5178,-8 354.5178,-14 354.5178,-20 354.5178,-20 354.5178,-518 354.5178,-518 354.5178,-524 348.5178,-530 342.5178,-530 342.5178,-530 20,-530 20,-530 14,-530 8,-524 8,-518 8,-518 8,-20 8,-20 8,-14 14,-8 20,-8"/>
<text text-anchor="middle" x="181.2589" y="-517.9" font-family="Helvetica,sans-Serif" font-weight="bold" font-size="9.00" fill="#000000">src</text>
</g>
<g id="clust2" class="cluster">
<title>cluster_src/components</title>
<path fill="#ffffff" stroke="#000000" stroke-width="2" d="M189.504,-77C189.504,-77 334.5178,-77 334.5178,-77 340.5178,-77 346.5178,-83 346.5178,-89 346.5178,-89 346.5178,-275 346.5178,-275 346.5178,-281 340.5178,-287 334.5178,-287 334.5178,-287 189.504,-287 189.504,-287 183.504,-287 177.504,-281 177.504,-275 177.504,-275 177.504,-89 177.504,-89 177.504,-83 183.504,-77 189.504,-77"/>
<text text-anchor="middle" x="262.0109" y="-274.9" font-family="Helvetica,sans-Serif" font-weight="bold" font-size="9.00" fill="#000000">components</text>
</g>
<g id="clust3" class="cluster">
<title>cluster_src/components/content</title>
<path fill="#ffffff" stroke="#000000" stroke-width="2" d="M197.504,-207C197.504,-207 326.5178,-207 326.5178,-207 332.5178,-207 338.5178,-213 338.5178,-219 338.5178,-219 338.5178,-248 338.5178,-248 338.5178,-254 332.5178,-260 326.5178,-260 326.5178,-260 197.504,-260 197.504,-260 191.504,-260 185.504,-254 185.504,-248 185.504,-248 185.504,-219 185.504,-219 185.504,-213 191.504,-207 197.504,-207"/>
<text text-anchor="middle" x="262.0109" y="-247.9" font-family="Helvetica,sans-Serif" font-weight="bold" font-size="9.00" fill="#000000">content</text>
</g>
<g id="clust4" class="cluster">
<title>cluster_src/components/footer</title>
<path fill="#ffffff" stroke="#000000" stroke-width="2" d="M197.504,-146C197.504,-146 326.5178,-146 326.5178,-146 332.5178,-146 338.5178,-152 338.5178,-158 338.5178,-158 338.5178,-187 338.5178,-187 338.5178,-193 332.5178,-199 326.5178,-199 326.5178,-199 197.504,-199 197.504,-199 191.504,-199 185.504,-193 185.504,-187 185.504,-187 185.504,-158 185.504,-158 185.504,-152 191.504,-146 197.504,-146"/>
<text text-anchor="middle" x="262.0109" y="-186.9" font-family="Helvetica,sans-Serif" font-weight="bold" font-size="9.00" fill="#000000">footer</text>
</g>
<g id="clust5" class="cluster">
<title>cluster_src/components/header</title>
<path fill="#ffffff" stroke="#000000" stroke-width="2" d="M197.504,-85C197.504,-85 326.5178,-85 326.5178,-85 332.5178,-85 338.5178,-91 338.5178,-97 338.5178,-97 338.5178,-126 338.5178,-126 338.5178,-132 332.5178,-138 326.5178,-138 326.5178,-138 197.504,-138 197.504,-138 191.504,-138 185.504,-132 185.504,-126 185.504,-126 185.504,-97 185.504,-97 185.504,-91 191.504,-85 197.504,-85"/>
<text text-anchor="middle" x="262.0109" y="-125.9" font-family="Helvetica,sans-Serif" font-weight="bold" font-size="9.00" fill="#000000">header</text>
</g>
<g id="clust6" class="cluster">
<title>cluster_src/files</title>
<path fill="#ffffff" stroke="#000000" stroke-width="2" d="M274.2616,-16C274.2616,-16 327.2715,-16 327.2715,-16 333.2715,-16 339.2715,-22 339.2715,-28 339.2715,-28 339.2715,-57 339.2715,-57 339.2715,-63 333.2715,-69 327.2715,-69 327.2715,-69 274.2616,-69 274.2616,-69 268.2616,-69 262.2616,-63 262.2616,-57 262.2616,-57 262.2616,-28 262.2616,-28 262.2616,-22 268.2616,-16 274.2616,-16"/>
<text text-anchor="middle" x="300.7666" y="-56.9" font-family="Helvetica,sans-Serif" font-weight="bold" font-size="9.00" fill="#000000">files</text>
</g>
<g id="clust7" class="cluster">
<title>cluster_src/images</title>
<path fill="#ffffff" stroke="#000000" stroke-width="2" d="M267.504,-295C267.504,-295 334.0292,-295 334.0292,-295 340.0292,-295 346.0292,-301 346.0292,-307 346.0292,-307 346.0292,-491 346.0292,-491 346.0292,-497 340.0292,-503 334.0292,-503 334.0292,-503 267.504,-503 267.504,-503 261.504,-503 255.504,-497 255.504,-491 255.504,-491 255.504,-307 255.504,-307 255.504,-301 261.504,-295 267.504,-295"/>
<text text-anchor="middle" x="300.7666" y="-490.9" font-family="Helvetica,sans-Serif" font-weight="bold" font-size="9.00" fill="#000000">images</text>
</g>
<!-- src/App.css -->
<g id="node1" class="node">
<title>src/App.css</title>
<g id="a_node1"><a xlink:href="src/App.css" xlink:title="App.css">
<path fill="#ffffcc" stroke="#000000" d="M241.3033,-69.3011C241.3033,-69.3011 199.7047,-69.3011 199.7047,-69.3011 196.6044,-69.3011 193.504,-66.2007 193.504,-63.1004 193.504,-63.1004 193.504,-56.8996 193.504,-56.8996 193.504,-53.7993 196.6044,-50.6989 199.7047,-50.6989 199.7047,-50.6989 241.3033,-50.6989 241.3033,-50.6989 244.4036,-50.6989 247.504,-53.7993 247.504,-56.8996 247.504,-56.8996 247.504,-63.1004 247.504,-63.1004 247.504,-66.2007 244.4036,-69.3011 241.3033,-69.3011"/>
<text text-anchor="middle" x="220.504" y="-57.3" font-family="Helvetica,sans-Serif" font-size="9.00" fill="#000000">App.css</text>
</a>
</g>
</g>
<!-- src/App.js -->
<g id="node2" class="node">
<title>src/App.js</title>
<g id="a_node2"><a xlink:href="src/App.js" xlink:title="App.js">
<path fill="#ffffcc" stroke="#000000" d="M149.0577,-233.3011C149.0577,-233.3011 107.4592,-233.3011 107.4592,-233.3011 104.3588,-233.3011 101.2584,-230.2007 101.2584,-227.1004 101.2584,-227.1004 101.2584,-220.8996 101.2584,-220.8996 101.2584,-217.7993 104.3588,-214.6989 107.4592,-214.6989 107.4592,-214.6989 149.0577,-214.6989 149.0577,-214.6989 152.1581,-214.6989 155.2584,-217.7993 155.2584,-220.8996 155.2584,-220.8996 155.2584,-227.1004 155.2584,-227.1004 155.2584,-230.2007 152.1581,-233.3011 149.0577,-233.3011"/>
<text text-anchor="middle" x="128.2584" y="-221.3" font-family="Helvetica,sans-Serif" font-size="9.00" fill="#000000">App.js</text>
</a>
</g>
</g>
<!-- src/App.js&#45;&gt;src/App.css -->
<g id="edge1" class="edge">
<title>src/App.js&#45;&gt;src/App.css</title>
<path fill="none" stroke="#000000" stroke-width="2" stroke-opacity="0.466667" d="M129.1234,-214.5068C131.837,-189.7909 142.2286,-122.5576 177.504,-82 179.8308,-79.3248 182.562,-76.9331 185.5005,-74.8043"/>
<polygon fill="#000000" fill-opacity="0.466667" stroke="#000000" stroke-width="2" stroke-opacity="0.466667" points="187.4761,-77.6984 194.1672,-69.4838 183.8138,-71.7329 187.4761,-77.6984"/>
</g>
<!-- src/components/content/index.js -->
<g id="node4" class="node">
<title>src/components/content/index.js</title>
<g id="a_node4"><a xlink:href="src/components/content/index.js" xlink:title="index.js">
<path fill="#ffffcc" stroke="#000000" d="M241.3033,-233.3011C241.3033,-233.3011 199.7047,-233.3011 199.7047,-233.3011 196.6044,-233.3011 193.504,-230.2007 193.504,-227.1004 193.504,-227.1004 193.504,-220.8996 193.504,-220.8996 193.504,-217.7993 196.6044,-214.6989 199.7047,-214.6989 199.7047,-214.6989 241.3033,-214.6989 241.3033,-214.6989 244.4036,-214.6989 247.504,-217.7993 247.504,-220.8996 247.504,-220.8996 247.504,-227.1004 247.504,-227.1004 247.504,-230.2007 244.4036,-233.3011 241.3033,-233.3011"/>
<text text-anchor="middle" x="220.504" y="-221.3" font-family="Helvetica,sans-Serif" font-size="9.00" fill="#000000">index.js</text>
</a>
</g>
</g>
<!-- src/App.js&#45;&gt;src/components/content/index.js -->
<g id="edge2" class="edge">
<title>src/App.js&#45;&gt;src/components/content/index.js</title>
<path fill="none" stroke="#000000" stroke-width="2" stroke-opacity="0.466667" d="M155.4362,-224C164.0856,-224 173.8107,-224 183.0538,-224"/>
<polygon fill="#000000" fill-opacity="0.466667" stroke="#000000" stroke-width="2" stroke-opacity="0.466667" points="183.2017,-227.5001 193.2017,-224 183.2017,-220.5001 183.2017,-227.5001"/>
</g>
<!-- src/components/footer/index.js -->
<g id="node6" class="node">
<title>src/components/footer/index.js</title>
<g id="a_node6"><a xlink:href="src/components/footer/index.js" xlink:title="index.js">
<path fill="#ffffcc" stroke="#000000" d="M241.3033,-172.3011C241.3033,-172.3011 199.7047,-172.3011 199.7047,-172.3011 196.6044,-172.3011 193.504,-169.2007 193.504,-166.1004 193.504,-166.1004 193.504,-159.8996 193.504,-159.8996 193.504,-156.7993 196.6044,-153.6989 199.7047,-153.6989 199.7047,-153.6989 241.3033,-153.6989 241.3033,-153.6989 244.4036,-153.6989 247.504,-156.7993 247.504,-159.8996 247.504,-159.8996 247.504,-166.1004 247.504,-166.1004 247.504,-169.2007 244.4036,-172.3011 241.3033,-172.3011"/>
<text text-anchor="middle" x="220.504" y="-160.3" font-family="Helvetica,sans-Serif" font-size="9.00" fill="#000000">index.js</text>
</a>
</g>
</g>
<!-- src/App.js&#45;&gt;src/components/footer/index.js -->
<g id="edge3" class="edge">
<title>src/App.js&#45;&gt;src/components/footer/index.js</title>
<path fill="none" stroke="#000000" stroke-width="2" stroke-opacity="0.466667" d="M142.6718,-214.4688C157.4292,-204.71 180.5809,-189.4003 197.8025,-178.012"/>
<polygon fill="#000000" fill-opacity="0.466667" stroke="#000000" stroke-width="2" stroke-opacity="0.466667" points="199.7812,-180.8996 206.1918,-172.4643 195.9201,-175.0608 199.7812,-180.8996"/>
</g>
<!-- src/components/header/index.js -->
<g id="node8" class="node">
<title>src/components/header/index.js</title>
<g id="a_node8"><a xlink:href="src/components/header/index.js" xlink:title="index.js">
<path fill="#ffffcc" stroke="#000000" d="M241.3033,-111.3011C241.3033,-111.3011 199.7047,-111.3011 199.7047,-111.3011 196.6044,-111.3011 193.504,-108.2007 193.504,-105.1004 193.504,-105.1004 193.504,-98.8996 193.504,-98.8996 193.504,-95.7993 196.6044,-92.6989 199.7047,-92.6989 199.7047,-92.6989 241.3033,-92.6989 241.3033,-92.6989 244.4036,-92.6989 247.504,-95.7993 247.504,-98.8996 247.504,-98.8996 247.504,-105.1004 247.504,-105.1004 247.504,-108.2007 244.4036,-111.3011 241.3033,-111.3011"/>
<text text-anchor="middle" x="220.504" y="-99.3" font-family="Helvetica,sans-Serif" font-size="9.00" fill="#000000">index.js</text>
</a>
</g>
</g>
<!-- src/App.js&#45;&gt;src/components/header/index.js -->
<g id="edge4" class="edge">
<title>src/App.js&#45;&gt;src/components/header/index.js</title>
<path fill="none" stroke="#000000" stroke-width="2" stroke-opacity="0.466667" d="M132.9856,-214.4921C141.011,-198.8 158.3101,-166.8458 177.504,-143 184.6084,-134.1738 193.5327,-125.3734 201.4072,-118.2017"/>
<polygon fill="#000000" fill-opacity="0.466667" stroke="#000000" stroke-width="2" stroke-opacity="0.466667" points="203.9422,-120.6321 209.113,-111.3847 199.3041,-115.3892 203.9422,-120.6321"/>
</g>
<!-- src/images/coffeecode.jpg -->
<g id="node11" class="node">
<title>src/images/coffeecode.jpg</title>
<g id="a_node11"><a xlink:href="src/images/coffeecode.jpg" xlink:title="coffeecode.jpg">
<path fill="#ffffcc" stroke="#000000" d="M331.5926,-445.3011C331.5926,-445.3011 269.9406,-445.3011 269.9406,-445.3011 266.8402,-445.3011 263.7399,-442.2007 263.7399,-439.1004 263.7399,-439.1004 263.7399,-432.8996 263.7399,-432.8996 263.7399,-429.7993 266.8402,-426.6989 269.9406,-426.6989 269.9406,-426.6989 331.5926,-426.6989 331.5926,-426.6989 334.693,-426.6989 337.7933,-429.7993 337.7933,-432.8996 337.7933,-432.8996 337.7933,-439.1004 337.7933,-439.1004 337.7933,-442.2007 334.693,-445.3011 331.5926,-445.3011"/>
<text text-anchor="middle" x="300.7666" y="-433.3" font-family="Helvetica,sans-Serif" font-size="9.00" fill="#000000">coffeecode.jpg</text>
</a>
</g>
</g>
<!-- src/App.js&#45;&gt;src/images/coffeecode.jpg -->
<g id="edge5" class="edge">
<title>src/App.js&#45;&gt;src/images/coffeecode.jpg</title>
<path fill="none" stroke="#000000" stroke-width="2" stroke-opacity="0.466667" d="M155.5399,-229.6977C160.9223,-232.039 165.9865,-235.3416 169.504,-240 181.07,-255.3174 170.1589,-308.2674 177.504,-326 198.279,-376.1553 210.9751,-388.9462 255.504,-420 256.4269,-420.6436 257.3784,-421.2639 258.3528,-421.8614"/>
<polygon fill="#000000" fill-opacity="0.466667" stroke="#000000" stroke-width="2" stroke-opacity="0.466667" points="257.102,-425.155 267.5917,-426.6442 260.3201,-418.9386 257.102,-425.155"/>
</g>
<!-- src/images/todo_app.png -->
<g id="node15" class="node">
<title>src/images/todo_app.png</title>
<g id="a_node15"><a xlink:href="src/images/todo_app.png" xlink:title="todo_app.png">
<path fill="#ffffcc" stroke="#000000" d="M330.0991,-476.3011C330.0991,-476.3011 271.4341,-476.3011 271.4341,-476.3011 268.3337,-476.3011 265.2334,-473.2007 265.2334,-470.1004 265.2334,-470.1004 265.2334,-463.8996 265.2334,-463.8996 265.2334,-460.7993 268.3337,-457.6989 271.4341,-457.6989 271.4341,-457.6989 330.0991,-457.6989 330.0991,-457.6989 333.1995,-457.6989 336.2998,-460.7993 336.2998,-463.8996 336.2998,-463.8996 336.2998,-470.1004 336.2998,-470.1004 336.2998,-473.2007 333.1995,-476.3011 330.0991,-476.3011"/>
<text text-anchor="middle" x="300.7666" y="-464.3" font-family="Helvetica,sans-Serif" font-size="9.00" fill="#000000">todo_app.png</text>
</a>
</g>
</g>
<!-- src/App.js&#45;&gt;src/images/todo_app.png -->
<g id="edge6" class="edge">
<title>src/App.js&#45;&gt;src/images/todo_app.png</title>
<path fill="none" stroke="#000000" stroke-width="2" stroke-opacity="0.466667" d="M155.6535,-229.6134C161.03,-231.959 166.0631,-235.2848 169.504,-240 186.9578,-263.9177 165.3567,-345.9975 177.504,-373 197.6174,-417.7103 214.034,-424.8505 255.504,-451 256.6144,-451.7002 257.7595,-452.3747 258.9308,-453.0242"/>
<polygon fill="#000000" fill-opacity="0.466667" stroke="#000000" stroke-width="2" stroke-opacity="0.466667" points="257.754,-456.3419 268.2831,-457.5203 260.787,-450.0331 257.754,-456.3419"/>
</g>
<!-- src/images/wallpaper1.jpg -->
<g id="node16" class="node">
<title>src/images/wallpaper1.jpg</title>
<g id="a_node16"><a xlink:href="src/images/wallpaper1.jpg" xlink:title="wallpaper1.jpg">
<path fill="#ffffcc" stroke="#000000" d="M331.5763,-414.3011C331.5763,-414.3011 269.9569,-414.3011 269.9569,-414.3011 266.8566,-414.3011 263.7562,-411.2007 263.7562,-408.1004 263.7562,-408.1004 263.7562,-401.8996 263.7562,-401.8996 263.7562,-398.7993 266.8566,-395.6989 269.9569,-395.6989 269.9569,-395.6989 331.5763,-395.6989 331.5763,-395.6989 334.6766,-395.6989 337.777,-398.7993 337.777,-401.8996 337.777,-401.8996 337.777,-408.1004 337.777,-408.1004 337.777,-411.2007 334.6766,-414.3011 331.5763,-414.3011"/>
<text text-anchor="middle" x="300.7666" y="-402.3" font-family="Helvetica,sans-Serif" font-size="9.00" fill="#000000">wallpaper1.jpg</text>
</a>
</g>
</g>
<!-- src/App.js&#45;&gt;src/images/wallpaper1.jpg -->
<g id="edge7" class="edge">
<title>src/App.js&#45;&gt;src/images/wallpaper1.jpg</title>
<path fill="none" stroke="#000000" stroke-width="2" stroke-opacity="0.466667" d="M155.5992,-230.7488C160.7205,-233.0149 165.6633,-236.0213 169.504,-240 177.0207,-247.7869 172.8499,-253.2289 177.504,-263 205.8263,-322.4611 204.2145,-347.6821 255.504,-389 256.1125,-389.4902 256.7371,-389.9659 257.3759,-390.4276"/>
<polygon fill="#000000" fill-opacity="0.466667" stroke="#000000" stroke-width="2" stroke-opacity="0.466667" points="255.9172,-393.6297 266.3136,-395.6711 259.4594,-387.5921 255.9172,-393.6297"/>
</g>
<!-- src/App.test.js -->
<g id="node3" class="node">
<title>src/App.test.js</title>
<g id="a_node3"><a xlink:href="src/App.test.js" xlink:title="App.test.js">
<path fill="#ffffcc" stroke="#000000" d="M67.8186,-233.3011C67.8186,-233.3011 22.1943,-233.3011 22.1943,-233.3011 19.0939,-233.3011 15.9935,-230.2007 15.9935,-227.1004 15.9935,-227.1004 15.9935,-220.8996 15.9935,-220.8996 15.9935,-217.7993 19.0939,-214.6989 22.1943,-214.6989 22.1943,-214.6989 67.8186,-214.6989 67.8186,-214.6989 70.919,-214.6989 74.0194,-217.7993 74.0194,-220.8996 74.0194,-220.8996 74.0194,-227.1004 74.0194,-227.1004 74.0194,-230.2007 70.919,-233.3011 67.8186,-233.3011"/>
<text text-anchor="middle" x="45.0064" y="-221.3" font-family="Helvetica,sans-Serif" font-size="9.00" fill="#000000">App.test.js</text>
</a>
</g>
</g>
<!-- src/App.test.js&#45;&gt;src/App.js -->
<g id="edge8" class="edge">
<title>src/App.test.js&#45;&gt;src/App.js</title>
<path fill="none" stroke="#000000" stroke-width="2" stroke-opacity="0.466667" d="M74.124,-224C79.6335,-224 85.4653,-224 91.1813,-224"/>
<polygon fill="#000000" fill-opacity="0.466667" stroke="#000000" stroke-width="2" stroke-opacity="0.466667" points="91.2505,-227.5001 101.2505,-224 91.2504,-220.5001 91.2505,-227.5001"/>
</g>
<!-- src/components/content/styles.scss -->
<g id="node5" class="node">
<title>src/components/content/styles.scss</title>
<g id="a_node5"><a xlink:href="src/components/content/styles.scss" xlink:title="styles.scss">
<path fill="#ffffcc" stroke="#000000" d="M324.0704,-233.3011C324.0704,-233.3011 277.4628,-233.3011 277.4628,-233.3011 274.3625,-233.3011 271.2621,-230.2007 271.2621,-227.1004 271.2621,-227.1004 271.2621,-220.8996 271.2621,-220.8996 271.2621,-217.7993 274.3625,-214.6989 277.4628,-214.6989 277.4628,-214.6989 324.0704,-214.6989 324.0704,-214.6989 327.1707,-214.6989 330.2711,-217.7993 330.2711,-220.8996 330.2711,-220.8996 330.2711,-227.1004 330.2711,-227.1004 330.2711,-230.2007 327.1707,-233.3011 324.0704,-233.3011"/>
<text text-anchor="middle" x="300.7666" y="-221.3" font-family="Helvetica,sans-Serif" font-size="9.00" fill="#000000">styles.scss</text>
</a>
</g>
</g>
<!-- src/components/content/index.js&#45;&gt;src/components/content/styles.scss -->
<g id="edge13" class="edge">
<title>src/components/content/index.js&#45;&gt;src/components/content/styles.scss</title>
<path fill="none" stroke="#000000" stroke-width="2" stroke-opacity="0.466667" d="M247.6773,-224C251.9238,-224 256.3871,-224 260.847,-224"/>
<polygon fill="#000000" fill-opacity="0.466667" stroke="#000000" stroke-width="2" stroke-opacity="0.466667" points="261.1434,-227.5001 271.1434,-224 261.1434,-220.5001 261.1434,-227.5001"/>
</g>
<!-- src/files/resume.pdf -->
<g id="node10" class="node">
<title>src/files/resume.pdf</title>
<g id="a_node10"><a xlink:href="src/files/resume.pdf" xlink:title="resume.pdf">
<path fill="#ffffcc" stroke="#000000" d="M325.0758,-42.3011C325.0758,-42.3011 276.4574,-42.3011 276.4574,-42.3011 273.3571,-42.3011 270.2567,-39.2007 270.2567,-36.1004 270.2567,-36.1004 270.2567,-29.8996 270.2567,-29.8996 270.2567,-26.7993 273.3571,-23.6989 276.4574,-23.6989 276.4574,-23.6989 325.0758,-23.6989 325.0758,-23.6989 328.1761,-23.6989 331.2765,-26.7993 331.2765,-29.8996 331.2765,-29.8996 331.2765,-36.1004 331.2765,-36.1004 331.2765,-39.2007 328.1761,-42.3011 325.0758,-42.3011"/>
<text text-anchor="middle" x="300.7666" y="-30.3" font-family="Helvetica,sans-Serif" font-size="9.00" fill="#000000">resume.pdf</text>
</a>
</g>
</g>
<!-- src/components/content/index.js&#45;&gt;src/files/resume.pdf -->
<g id="edge9" class="edge">
<title>src/components/content/index.js&#45;&gt;src/files/resume.pdf</title>
<path fill="none" stroke="#000000" stroke-width="2" stroke-opacity="0.466667" d="M236.4057,-214.5667C240.7457,-211.1737 244.9509,-206.9423 247.504,-202 259.7702,-178.2553 244.9448,-106.5515 255.504,-82 261.0089,-69.2003 271.3368,-57.6088 280.7385,-48.917"/>
<polygon fill="#000000" fill-opacity="0.466667" stroke="#000000" stroke-width="2" stroke-opacity="0.466667" points="283.052,-51.5434 288.2918,-42.335 278.4532,-46.266 283.052,-51.5434"/>
</g>
<!-- src/images/email.png -->
<g id="node12" class="node">
<title>src/images/email.png</title>
<g id="a_node12"><a xlink:href="src/images/email.png" xlink:title="email.png">
<path fill="#ffffcc" stroke="#000000" d="M322.0728,-321.3011C322.0728,-321.3011 279.4604,-321.3011 279.4604,-321.3011 276.3601,-321.3011 273.2597,-318.2007 273.2597,-315.1004 273.2597,-315.1004 273.2597,-308.8996 273.2597,-308.8996 273.2597,-305.7993 276.3601,-302.6989 279.4604,-302.6989 279.4604,-302.6989 322.0728,-302.6989 322.0728,-302.6989 325.1731,-302.6989 328.2735,-305.7993 328.2735,-308.8996 328.2735,-308.8996 328.2735,-315.1004 328.2735,-315.1004 328.2735,-318.2007 325.1731,-321.3011 322.0728,-321.3011"/>
<text text-anchor="middle" x="300.7666" y="-309.3" font-family="Helvetica,sans-Serif" font-size="9.00" fill="#000000">email.png</text>
</a>
</g>
</g>
<!-- src/components/content/index.js&#45;&gt;src/images/email.png -->
<g id="edge10" class="edge">
<title>src/components/content/index.js&#45;&gt;src/images/email.png</title>
<path fill="none" stroke="#000000" stroke-width="2" stroke-opacity="0.466667" d="M243.5996,-233.3474C245.0273,-234.4447 246.3506,-235.6589 247.504,-237 255.3874,-246.1665 249.4742,-252.5207 255.504,-263 262.4728,-275.1113 272.9271,-286.6908 282.0334,-295.5495"/>
<polygon fill="#000000" fill-opacity="0.466667" stroke="#000000" stroke-width="2" stroke-opacity="0.466667" points="279.8679,-298.316 289.5673,-302.579 284.6434,-293.1978 279.8679,-298.316"/>
</g>
<!-- src/images/github.png -->
<g id="node13" class="node">
<title>src/images/github.png</title>
<g id="a_node13"><a xlink:href="src/images/github.png" xlink:title="github.png">
<path fill="#ffffcc" stroke="#000000" d="M323.5869,-383.3011C323.5869,-383.3011 277.9463,-383.3011 277.9463,-383.3011 274.8459,-383.3011 271.7456,-380.2007 271.7456,-377.1004 271.7456,-377.1004 271.7456,-370.8996 271.7456,-370.8996 271.7456,-367.7993 274.8459,-364.6989 277.9463,-364.6989 277.9463,-364.6989 323.5869,-364.6989 323.5869,-364.6989 326.6873,-364.6989 329.7876,-367.7993 329.7876,-370.8996 329.7876,-370.8996 329.7876,-377.1004 329.7876,-377.1004 329.7876,-380.2007 326.6873,-383.3011 323.5869,-383.3011"/>
<text text-anchor="middle" x="300.7666" y="-371.3" font-family="Helvetica,sans-Serif" font-size="9.00" fill="#000000">github.png</text>
</a>
</g>
</g>
<!-- src/components/content/index.js&#45;&gt;src/images/github.png -->
<g id="edge11" class="edge">
<title>src/components/content/index.js&#45;&gt;src/images/github.png</title>
<path fill="none" stroke="#000000" stroke-width="2" stroke-opacity="0.466667" d="M244.6654,-233.6949C245.7287,-234.6942 246.6887,-235.7928 247.504,-237 262.5871,-259.331 239.2275,-336.5233 255.504,-358 257.5177,-360.657 260.0071,-362.8743 262.7745,-364.7245"/>
<polygon fill="#000000" fill-opacity="0.466667" stroke="#000000" stroke-width="2" stroke-opacity="0.466667" points="261.2094,-367.8551 271.7125,-369.246 264.3692,-361.6088 261.2094,-367.8551"/>
</g>
<!-- src/images/linkedin.png -->
<g id="node14" class="node">
<title>src/images/linkedin.png</title>
<g id="a_node14"><a xlink:href="src/images/linkedin.png" xlink:title="linkedin.png">
<path fill="#ffffcc" stroke="#000000" d="M326.58,-352.3011C326.58,-352.3011 274.9532,-352.3011 274.9532,-352.3011 271.8528,-352.3011 268.7525,-349.2007 268.7525,-346.1004 268.7525,-346.1004 268.7525,-339.8996 268.7525,-339.8996 268.7525,-336.7993 271.8528,-333.6989 274.9532,-333.6989 274.9532,-333.6989 326.58,-333.6989 326.58,-333.6989 329.6804,-333.6989 332.7807,-336.7993 332.7807,-339.8996 332.7807,-339.8996 332.7807,-346.1004 332.7807,-346.1004 332.7807,-349.2007 329.6804,-352.3011 326.58,-352.3011"/>
<text text-anchor="middle" x="300.7666" y="-340.3" font-family="Helvetica,sans-Serif" font-size="9.00" fill="#000000">linkedin.png</text>
</a>
</g>
</g>
<!-- src/components/content/index.js&#45;&gt;src/images/linkedin.png -->
<g id="edge12" class="edge">
<title>src/components/content/index.js&#45;&gt;src/images/linkedin.png</title>
<path fill="none" stroke="#000000" stroke-width="2" stroke-opacity="0.466667" d="M244.633,-233.717C245.7044,-234.7108 246.675,-235.8022 247.504,-237 258.9301,-253.5107 243.1959,-311.1358 255.504,-327 256.7685,-328.6298 258.2115,-330.094 259.7868,-331.4095"/>
<polygon fill="#000000" fill-opacity="0.466667" stroke="#000000" stroke-width="2" stroke-opacity="0.466667" points="258.2035,-334.5454 268.5504,-336.8243 261.883,-328.5904 258.2035,-334.5454"/>
</g>
<!-- src/components/footer/styles.scss -->
<g id="node7" class="node">
<title>src/components/footer/styles.scss</title>
<g id="a_node7"><a xlink:href="src/components/footer/styles.scss" xlink:title="styles.scss">
<path fill="#ffffcc" stroke="#000000" d="M324.0704,-172.3011C324.0704,-172.3011 277.4628,-172.3011 277.4628,-172.3011 274.3625,-172.3011 271.2621,-169.2007 271.2621,-166.1004 271.2621,-166.1004 271.2621,-159.8996 271.2621,-159.8996 271.2621,-156.7993 274.3625,-153.6989 277.4628,-153.6989 277.4628,-153.6989 324.0704,-153.6989 324.0704,-153.6989 327.1707,-153.6989 330.2711,-156.7993 330.2711,-159.8996 330.2711,-159.8996 330.2711,-166.1004 330.2711,-166.1004 330.2711,-169.2007 327.1707,-172.3011 324.0704,-172.3011"/>
<text text-anchor="middle" x="300.7666" y="-160.3" font-family="Helvetica,sans-Serif" font-size="9.00" fill="#000000">styles.scss</text>
</a>
</g>
</g>
<!-- src/components/footer/index.js&#45;&gt;src/components/footer/styles.scss -->
<g id="edge17" class="edge">
<title>src/components/footer/index.js&#45;&gt;src/components/footer/styles.scss</title>
<path fill="none" stroke="#000000" stroke-width="2" stroke-opacity="0.466667" d="M247.6773,-163C251.9238,-163 256.3871,-163 260.847,-163"/>
<polygon fill="#000000" fill-opacity="0.466667" stroke="#000000" stroke-width="2" stroke-opacity="0.466667" points="261.1434,-166.5001 271.1434,-163 261.1434,-159.5001 261.1434,-166.5001"/>
</g>
<!-- src/components/footer/index.js&#45;&gt;src/images/email.png -->
<g id="edge14" class="edge">
<title>src/components/footer/index.js&#45;&gt;src/images/email.png</title>
<path fill="none" stroke="#000000" stroke-width="2" stroke-opacity="0.466667" d="M228.5022,-172.4278C234.7449,-180.3306 243.0774,-192.1884 247.504,-204 256.7903,-228.7792 244.2262,-239.0614 255.504,-263 261.3828,-275.4785 271.5894,-286.9526 280.824,-295.6557"/>
<polygon fill="#000000" fill-opacity="0.466667" stroke="#000000" stroke-width="2" stroke-opacity="0.466667" points="278.7616,-298.5058 288.5559,-302.546 283.4188,-293.2799 278.7616,-298.5058"/>
</g>
<!-- src/components/footer/index.js&#45;&gt;src/images/github.png -->
<g id="edge15" class="edge">
<title>src/components/footer/index.js&#45;&gt;src/images/github.png</title>
<path fill="none" stroke="#000000" stroke-width="2" stroke-opacity="0.466667" d="M228.7655,-172.3353C235.161,-180.1844 243.5705,-192.0151 247.504,-204 252.8471,-220.2798 245.2515,-344.2717 255.504,-358 257.4989,-360.6712 259.9754,-362.8982 262.7343,-364.7547"/>
<polygon fill="#000000" fill-opacity="0.466667" stroke="#000000" stroke-width="2" stroke-opacity="0.466667" points="261.1581,-367.8797 271.6592,-369.2862 264.3272,-361.6381 261.1581,-367.8797"/>
</g>
<!-- src/components/footer/index.js&#45;&gt;src/images/linkedin.png -->
<g id="edge16" class="edge">
<title>src/components/footer/index.js&#45;&gt;src/images/linkedin.png</title>
<path fill="none" stroke="#000000" stroke-width="2" stroke-opacity="0.466667" d="M228.7238,-172.3491C235.0951,-180.2063 243.4924,-192.0411 247.504,-204 256.2152,-229.969 238.9713,-305.161 255.504,-327 256.7491,-328.6447 258.1765,-330.1209 259.7393,-331.4459"/>
<polygon fill="#000000" fill-opacity="0.466667" stroke="#000000" stroke-width="2" stroke-opacity="0.466667" points="258.128,-334.5659 268.4649,-336.8898 261.8334,-328.627 258.128,-334.5659"/>
</g>
<!-- src/components/header/styles.scss -->
<g id="node9" class="node">
<title>src/components/header/styles.scss</title>
<g id="a_node9"><a xlink:href="src/components/header/styles.scss" xlink:title="styles.scss">
<path fill="#ffffcc" stroke="#000000" d="M324.0704,-111.3011C324.0704,-111.3011 277.4628,-111.3011 277.4628,-111.3011 274.3625,-111.3011 271.2621,-108.2007 271.2621,-105.1004 271.2621,-105.1004 271.2621,-98.8996 271.2621,-98.8996 271.2621,-95.7993 274.3625,-92.6989 277.4628,-92.6989 277.4628,-92.6989 324.0704,-92.6989 324.0704,-92.6989 327.1707,-92.6989 330.2711,-95.7993 330.2711,-98.8996 330.2711,-98.8996 330.2711,-105.1004 330.2711,-105.1004 330.2711,-108.2007 327.1707,-111.3011 324.0704,-111.3011"/>
<text text-anchor="middle" x="300.7666" y="-99.3" font-family="Helvetica,sans-Serif" font-size="9.00" fill="#000000">styles.scss</text>
</a>
</g>
</g>
<!-- src/components/header/index.js&#45;&gt;src/components/header/styles.scss -->
<g id="edge18" class="edge">
<title>src/components/header/index.js&#45;&gt;src/components/header/styles.scss</title>
<path fill="none" stroke="#000000" stroke-width="2" stroke-opacity="0.466667" d="M247.6773,-102C251.9238,-102 256.3871,-102 260.847,-102"/>
<polygon fill="#000000" fill-opacity="0.466667" stroke="#000000" stroke-width="2" stroke-opacity="0.466667" points="261.1434,-105.5001 271.1434,-102 261.1434,-98.5001 261.1434,-105.5001"/>
</g>
<!-- src/index.css -->
<g id="node17" class="node">
<title>src/index.css</title>
<g id="a_node17"><a xlink:href="src/index.css" xlink:title="index.css">
<path fill="#ffffcc" stroke="#000000" d="M149.0577,-264.3011C149.0577,-264.3011 107.4592,-264.3011 107.4592,-264.3011 104.3588,-264.3011 101.2584,-261.2007 101.2584,-258.1004 101.2584,-258.1004 101.2584,-251.8996 101.2584,-251.8996 101.2584,-248.7993 104.3588,-245.6989 107.4592,-245.6989 107.4592,-245.6989 149.0577,-245.6989 149.0577,-245.6989 152.1581,-245.6989 155.2584,-248.7993 155.2584,-251.8996 155.2584,-251.8996 155.2584,-258.1004 155.2584,-258.1004 155.2584,-261.2007 152.1581,-264.3011 149.0577,-264.3011"/>
<text text-anchor="middle" x="128.2584" y="-252.3" font-family="Helvetica,sans-Serif" font-size="9.00" fill="#000000">index.css</text>
</a>
</g>
</g>
<!-- src/index.js -->
<g id="node18" class="node">
<title>src/index.js</title>
<g id="a_node18"><a xlink:href="src/index.js" xlink:title="index.js">
<path fill="#ffffcc" stroke="#000000" d="M65.8057,-264.3011C65.8057,-264.3011 24.2072,-264.3011 24.2072,-264.3011 21.1068,-264.3011 18.0064,-261.2007 18.0064,-258.1004 18.0064,-258.1004 18.0064,-251.8996 18.0064,-251.8996 18.0064,-248.7993 21.1068,-245.6989 24.2072,-245.6989 24.2072,-245.6989 65.8057,-245.6989 65.8057,-245.6989 68.9061,-245.6989 72.0064,-248.7993 72.0064,-251.8996 72.0064,-251.8996 72.0064,-258.1004 72.0064,-258.1004 72.0064,-261.2007 68.9061,-264.3011 65.8057,-264.3011"/>
<text text-anchor="middle" x="45.0064" y="-252.3" font-family="Helvetica,sans-Serif" font-size="9.00" fill="#000000">index.js</text>
</a>
</g>
</g>
<!-- src/index.js&#45;&gt;src/App.js -->
<g id="edge19" class="edge">
<title>src/index.js&#45;&gt;src/App.js</title>
<path fill="none" stroke="#000000" stroke-width="2" stroke-opacity="0.466667" d="M70.4372,-245.5305C77.7668,-242.8012 85.8901,-239.7764 93.675,-236.8776"/>
<polygon fill="#000000" fill-opacity="0.466667" stroke="#000000" stroke-width="2" stroke-opacity="0.466667" points="95.1195,-240.0746 103.2695,-233.305 92.6768,-233.5146 95.1195,-240.0746"/>
</g>
<!-- src/index.js&#45;&gt;src/index.css -->
<g id="edge20" class="edge">
<title>src/index.js&#45;&gt;src/index.css</title>
<path fill="none" stroke="#000000" stroke-width="2" stroke-opacity="0.466667" d="M72.2663,-255C78.2206,-255 84.622,-255 90.893,-255"/>
<polygon fill="#000000" fill-opacity="0.466667" stroke="#000000" stroke-width="2" stroke-opacity="0.466667" points="91.2218,-258.5001 101.2217,-255 91.2217,-251.5001 91.2218,-258.5001"/>
</g>
<!-- src/serviceWorker.js -->
<g id="node19" class="node">
<title>src/serviceWorker.js</title>
<g id="a_node19"><a xlink:href="src/serviceWorker.js" xlink:title="serviceWorker.js">
<path fill="#ffffcc" stroke="#000000" d="M163.5503,-295.3011C163.5503,-295.3011 92.9666,-295.3011 92.9666,-295.3011 89.8662,-295.3011 86.7659,-292.2007 86.7659,-289.1004 86.7659,-289.1004 86.7659,-282.8996 86.7659,-282.8996 86.7659,-279.7993 89.8662,-276.6989 92.9666,-276.6989 92.9666,-276.6989 163.5503,-276.6989 163.5503,-276.6989 166.6507,-276.6989 169.751,-279.7993 169.751,-282.8996 169.751,-282.8996 169.751,-289.1004 169.751,-289.1004 169.751,-292.2007 166.6507,-295.3011 163.5503,-295.3011"/>
<text text-anchor="middle" x="128.2584" y="-283.3" font-family="Helvetica,sans-Serif" font-size="9.00" fill="#000000">serviceWorker.js</text>
</a>
</g>
</g>
<!-- src/index.js&#45;&gt;src/serviceWorker.js -->
<g id="edge21" class="edge">
<title>src/index.js&#45;&gt;src/serviceWorker.js</title>
<path fill="none" stroke="#000000" stroke-width="2" stroke-opacity="0.466667" d="M70.4372,-264.4695C77.7668,-267.1988 85.8901,-270.2236 93.675,-273.1224"/>
<polygon fill="#000000" fill-opacity="0.466667" stroke="#000000" stroke-width="2" stroke-opacity="0.466667" points="92.6768,-276.4854 103.2695,-276.695 95.1195,-269.9254 92.6768,-276.4854"/>
</g>
</g>
</svg>
