<?xml version="1.0" encoding="UTF-8" standalone="no"?>
<!DOCTYPE svg PUBLIC "-//W3C//DTD SVG 1.1//EN"
 "http://www.w3.org/Graphics/SVG/1.1/DTD/svg11.dtd">
<!-- Generated by graphviz version 2.40.1 (20161225.0304)
 -->
<!-- Title: dependency&#45;cruiser output Pages: 1 -->
<svg width="365pt" height="449pt"
 viewBox="0.00 0.00 365.26 449.00" xmlns="http://www.w3.org/2000/svg" xmlns:xlink="http://www.w3.org/1999/xlink">
<g id="graph0" class="graph" transform="scale(1 1) rotate(0) translate(4 445)">
<title>dependency&#45;cruiser output</title>
<polygon fill="#ffffff" stroke="transparent" points="-4,4 -4,-445 361.2622,-445 361.2622,4 -4,4"/>
<g id="clust1" class="cluster">
<title>cluster_src</title>
<path fill="#ffffff" stroke="#000000" stroke-width="2" d="M20,-8C20,-8 337.2622,-8 337.2622,-8 343.2622,-8 349.2622,-14 349.2622,-20 349.2622,-20 349.2622,-421 349.2622,-421 349.2622,-427 343.2622,-433 337.2622,-433 337.2622,-433 20,-433 20,-433 14,-433 8,-427 8,-421 8,-421 8,-20 8,-20 8,-14 14,-8 20,-8"/>
<text text-anchor="middle" x="178.6311" y="-420.9" font-family="Helvetica,sans-Serif" font-weight="bold" font-size="9.00" fill="#000000">src</text>
</g>
<g id="clust2" class="cluster">
<title>cluster_src/components</title>
<path fill="#ffffff" stroke="#000000" stroke-width="2" d="M189.504,-42C189.504,-42 329.2622,-42 329.2622,-42 335.2622,-42 341.2622,-48 341.2622,-54 341.2622,-54 341.2622,-240 341.2622,-240 341.2622,-246 335.2622,-252 329.2622,-252 329.2622,-252 189.504,-252 189.504,-252 183.504,-252 177.504,-246 177.504,-240 177.504,-240 177.504,-54 177.504,-54 177.504,-48 183.504,-42 189.504,-42"/>
<text text-anchor="middle" x="259.3831" y="-239.9" font-family="Helvetica,sans-Serif" font-weight="bold" font-size="9.00" fill="#000000">components</text>
</g>
<g id="clust3" class="cluster">
<title>cluster_src/components/content</title>
<path fill="#ffffff" stroke="#000000" stroke-width="2" d="M197.504,-172C197.504,-172 321.2622,-172 321.2622,-172 327.2622,-172 333.2622,-178 333.2622,-184 333.2622,-184 333.2622,-213 333.2622,-213 333.2622,-219 327.2622,-225 321.2622,-225 321.2622,-225 197.504,-225 197.504,-225 191.504,-225 185.504,-219 185.504,-213 185.504,-213 185.504,-184 185.504,-184 185.504,-178 191.504,-172 197.504,-172"/>
<text text-anchor="middle" x="259.3831" y="-212.9" font-family="Helvetica,sans-Serif" font-weight="bold" font-size="9.00" fill="#000000">content</text>
</g>
<g id="clust4" class="cluster">
<title>cluster_src/components/footer</title>
<path fill="#ffffff" stroke="#000000" stroke-width="2" d="M197.504,-111C197.504,-111 321.2622,-111 321.2622,-111 327.2622,-111 333.2622,-117 333.2622,-123 333.2622,-123 333.2622,-152 333.2622,-152 333.2622,-158 327.2622,-164 321.2622,-164 321.2622,-164 197.504,-164 197.504,-164 191.504,-164 185.504,-158 185.504,-152 185.504,-152 185.504,-123 185.504,-123 185.504,-117 191.504,-111 197.504,-111"/>
<text text-anchor="middle" x="259.3831" y="-151.9" font-family="Helvetica,sans-Serif" font-weight="bold" font-size="9.00" fill="#000000">footer</text>
</g>
<g id="clust5" class="cluster">
<title>cluster_src/components/header</title>
<path fill="#ffffff" stroke="#000000" stroke-width="2" d="M197.504,-50C197.504,-50 321.2622,-50 321.2622,-50 327.2622,-50 333.2622,-56 333.2622,-62 333.2622,-62 333.2622,-91 333.2622,-91 333.2622,-97 327.2622,-103 321.2622,-103 321.2622,-103 197.504,-103 197.504,-103 191.504,-103 185.504,-97 185.504,-91 185.504,-91 185.504,-62 185.504,-62 185.504,-56 191.504,-50 197.504,-50"/>
<text text-anchor="middle" x="259.3831" y="-90.9" font-family="Helvetica,sans-Serif" font-weight="bold" font-size="9.00" fill="#000000">header</text>
</g>
<g id="clust6" class="cluster">
<title>cluster_src/images</title>
<path fill="#ffffff" stroke="#000000" stroke-width="2" d="M267.504,-260C267.504,-260 323.5181,-260 323.5181,-260 329.5181,-260 335.5181,-266 335.5181,-272 335.5181,-272 335.5181,-394 335.5181,-394 335.5181,-400 329.5181,-406 323.5181,-406 323.5181,-406 267.504,-406 267.504,-406 261.504,-406 255.504,-400 255.504,-394 255.504,-394 255.504,-272 255.504,-272 255.504,-266 261.504,-260 267.504,-260"/>
<text text-anchor="middle" x="295.511" y="-393.9" font-family="Helvetica,sans-Serif" font-weight="bold" font-size="9.00" fill="#000000">images</text>
</g>
<!-- src/App.css -->
<g id="node1" class="node">
<title>src/App.css</title>
<g id="a_node1"><a xlink:href="src/App.css" xlink:title="App.css">
<path fill="#ffffcc" stroke="#000000" d="M241.3033,-34.3011C241.3033,-34.3011 199.7047,-34.3011 199.7047,-34.3011 196.6044,-34.3011 193.504,-31.2007 193.504,-28.1004 193.504,-28.1004 193.504,-21.8996 193.504,-21.8996 193.504,-18.7993 196.6044,-15.6989 199.7047,-15.6989 199.7047,-15.6989 241.3033,-15.6989 241.3033,-15.6989 244.4036,-15.6989 247.504,-18.7993 247.504,-21.8996 247.504,-21.8996 247.504,-28.1004 247.504,-28.1004 247.504,-31.2007 244.4036,-34.3011 241.3033,-34.3011"/>
<text text-anchor="middle" x="220.504" y="-22.3" font-family="Helvetica,sans-Serif" font-size="9.00" fill="#000000">App.css</text>
</a>
</g>
</g>
<!-- src/App.js -->
<g id="node2" class="node">
<title>src/App.js</title>
<g id="a_node2"><a xlink:href="src/App.js" xlink:title="App.js">
<path fill="#ffffcc" stroke="#000000" d="M149.0577,-137.3011C149.0577,-137.3011 107.4592,-137.3011 107.4592,-137.3011 104.3588,-137.3011 101.2584,-134.2007 101.2584,-131.1004 101.2584,-131.1004 101.2584,-124.8996 101.2584,-124.8996 101.2584,-121.7993 104.3588,-118.6989 107.4592,-118.6989 107.4592,-118.6989 149.0577,-118.6989 149.0577,-118.6989 152.1581,-118.6989 155.2584,-121.7993 155.2584,-124.8996 155.2584,-124.8996 155.2584,-131.1004 155.2584,-131.1004 155.2584,-134.2007 152.1581,-137.3011 149.0577,-137.3011"/>
<text text-anchor="middle" x="128.2584" y="-125.3" font-family="Helvetica,sans-Serif" font-size="9.00" fill="#000000">App.js</text>
</a>
</g>
</g>
<!-- src/App.js&#45;&gt;src/App.css -->
<g id="edge1" class="edge">
<title>src/App.js&#45;&gt;src/App.css</title>
<path fill="none" stroke="#000000" stroke-width="2" stroke-opacity="0.466667" d="M131.93,-118.6103C138.7352,-102.2326 154.718,-68.173 177.504,-47 180.4603,-44.253 183.8247,-41.7613 187.3393,-39.526"/>
<polygon fill="#000000" fill-opacity="0.466667" stroke="#000000" stroke-width="2" stroke-opacity="0.466667" points="189.2532,-42.4648 196.2382,-34.4985 185.81,-36.3701 189.2532,-42.4648"/>
</g>
<!-- src/components/content/index.js -->
<g id="node4" class="node">
<title>src/components/content/index.js</title>
<g id="a_node4"><a xlink:href="src/components/content/index.js" xlink:title="index.js">
<path fill="#ffffcc" stroke="#000000" d="M241.3033,-198.3011C241.3033,-198.3011 199.7047,-198.3011 199.7047,-198.3011 196.6044,-198.3011 193.504,-195.2007 193.504,-192.1004 193.504,-192.1004 193.504,-185.8996 193.504,-185.8996 193.504,-182.7993 196.6044,-179.6989 199.7047,-179.6989 199.7047,-179.6989 241.3033,-179.6989 241.3033,-179.6989 244.4036,-179.6989 247.504,-182.7993 247.504,-185.8996 247.504,-185.8996 247.504,-192.1004 247.504,-192.1004 247.504,-195.2007 244.4036,-198.3011 241.3033,-198.3011"/>
<text text-anchor="middle" x="220.504" y="-186.3" font-family="Helvetica,sans-Serif" font-size="9.00" fill="#000000">index.js</text>
</a>
</g>
</g>
<!-- src/App.js&#45;&gt;src/components/content/index.js -->
<g id="edge2" class="edge">
<title>src/App.js&#45;&gt;src/components/content/index.js</title>
<path fill="none" stroke="#000000" stroke-width="2" stroke-opacity="0.466667" d="M155.5992,-134.7488C160.7205,-137.0149 165.6633,-140.0213 169.504,-144 177.0207,-151.7869 170.3976,-158.837 177.504,-167 179.832,-169.6742 182.564,-172.0651 185.503,-174.1934"/>
<polygon fill="#000000" fill-opacity="0.466667" stroke="#000000" stroke-width="2" stroke-opacity="0.466667" points="183.8169,-177.2652 194.1705,-179.5133 187.4787,-171.2993 183.8169,-177.2652"/>
</g>
<!-- src/components/footer/index.js -->
<g id="node6" class="node">
<title>src/components/footer/index.js</title>
<g id="a_node6"><a xlink:href="src/components/footer/index.js" xlink:title="index.js">
<path fill="#ffffcc" stroke="#000000" d="M241.3033,-137.3011C241.3033,-137.3011 199.7047,-137.3011 199.7047,-137.3011 196.6044,-137.3011 193.504,-134.2007 193.504,-131.1004 193.504,-131.1004 193.504,-124.8996 193.504,-124.8996 193.504,-121.7993 196.6044,-118.6989 199.7047,-118.6989 199.7047,-118.6989 241.3033,-118.6989 241.3033,-118.6989 244.4036,-118.6989 247.504,-121.7993 247.504,-124.8996 247.504,-124.8996 247.504,-131.1004 247.504,-131.1004 247.504,-134.2007 244.4036,-137.3011 241.3033,-137.3011"/>
<text text-anchor="middle" x="220.504" y="-125.3" font-family="Helvetica,sans-Serif" font-size="9.00" fill="#000000">index.js</text>
</a>
</g>
</g>
<!-- src/App.js&#45;&gt;src/components/footer/index.js -->
<g id="edge3" class="edge">
<title>src/App.js&#45;&gt;src/components/footer/index.js</title>
<path fill="none" stroke="#000000" stroke-width="2" stroke-opacity="0.466667" d="M155.4362,-128C164.0856,-128 173.8107,-128 183.0538,-128"/>
<polygon fill="#000000" fill-opacity="0.466667" stroke="#000000" stroke-width="2" stroke-opacity="0.466667" points="183.2017,-131.5001 193.2017,-128 183.2017,-124.5001 183.2017,-131.5001"/>
</g>
<!-- src/components/header/index.js -->
<g id="node8" class="node">
<title>src/components/header/index.js</title>
<g id="a_node8"><a xlink:href="src/components/header/index.js" xlink:title="index.js">
<path fill="#ffffcc" stroke="#000000" d="M241.3033,-76.3011C241.3033,-76.3011 199.7047,-76.3011 199.7047,-76.3011 196.6044,-76.3011 193.504,-73.2007 193.504,-70.1004 193.504,-70.1004 193.504,-63.8996 193.504,-63.8996 193.504,-60.7993 196.6044,-57.6989 199.7047,-57.6989 199.7047,-57.6989 241.3033,-57.6989 241.3033,-57.6989 244.4036,-57.6989 247.504,-60.7993 247.504,-63.8996 247.504,-63.8996 247.504,-70.1004 247.504,-70.1004 247.504,-73.2007 244.4036,-76.3011 241.3033,-76.3011"/>
<text text-anchor="middle" x="220.504" y="-64.3" font-family="Helvetica,sans-Serif" font-size="9.00" fill="#000000">index.js</text>
</a>
</g>
</g>
<!-- src/App.js&#45;&gt;src/components/header/index.js -->
<g id="edge4" class="edge">
<title>src/App.js&#45;&gt;src/components/header/index.js</title>
<path fill="none" stroke="#000000" stroke-width="2" stroke-opacity="0.466667" d="M142.6718,-118.4688C157.4292,-108.71 180.5809,-93.4003 197.8025,-82.012"/>
<polygon fill="#000000" fill-opacity="0.466667" stroke="#000000" stroke-width="2" stroke-opacity="0.466667" points="199.7812,-84.8996 206.1918,-76.4643 195.9201,-79.0608 199.7812,-84.8996"/>
</g>
<!-- src/images/wall4.jpg -->
<g id="node13" class="node">
<title>src/images/wall4.jpg</title>
<g id="a_node13"><a xlink:href="src/images/wall4.jpg" xlink:title="wall4.jpg">
<path fill="#ffffcc" stroke="#000000" d="M316.3103,-379.3011C316.3103,-379.3011 274.7118,-379.3011 274.7118,-379.3011 271.6114,-379.3011 268.511,-376.2007 268.511,-373.1004 268.511,-373.1004 268.511,-366.8996 268.511,-366.8996 268.511,-363.7993 271.6114,-360.6989 274.7118,-360.6989 274.7118,-360.6989 316.3103,-360.6989 316.3103,-360.6989 319.4107,-360.6989 322.511,-363.7993 322.511,-366.8996 322.511,-366.8996 322.511,-373.1004 322.511,-373.1004 322.511,-376.2007 319.4107,-379.3011 316.3103,-379.3011"/>
<text text-anchor="middle" x="295.511" y="-367.3" font-family="Helvetica,sans-Serif" font-size="9.00" fill="#000000">wall4.jpg</text>
</a>
</g>
</g>
<!-- src/App.js&#45;&gt;src/images/wall4.jpg -->
<g id="edge5" class="edge">
<title>src/App.js&#45;&gt;src/images/wall4.jpg</title>
<path fill="none" stroke="#000000" stroke-width="2" stroke-opacity="0.466667" d="M155.5323,-133.7034C160.9151,-136.0444 165.9814,-139.3455 169.504,-144 180.8198,-158.9518 171.5232,-210.2283 177.504,-228 198.5111,-290.4218 205.0651,-311.6479 255.504,-354 256.6856,-354.9921 257.9364,-355.9282 259.2377,-356.8109"/>
<polygon fill="#000000" fill-opacity="0.466667" stroke="#000000" stroke-width="2" stroke-opacity="0.466667" points="257.9188,-360.0825 268.3586,-361.8885 261.3237,-353.9663 257.9188,-360.0825"/>
</g>
<!-- src/App.test.js -->
<g id="node3" class="node">
<title>src/App.test.js</title>
<g id="a_node3"><a xlink:href="src/App.test.js" xlink:title="App.test.js">
<path fill="#ffffcc" stroke="#000000" d="M67.8186,-137.3011C67.8186,-137.3011 22.1943,-137.3011 22.1943,-137.3011 19.0939,-137.3011 15.9935,-134.2007 15.9935,-131.1004 15.9935,-131.1004 15.9935,-124.8996 15.9935,-124.8996 15.9935,-121.7993 19.0939,-118.6989 22.1943,-118.6989 22.1943,-118.6989 67.8186,-118.6989 67.8186,-118.6989 70.919,-118.6989 74.0194,-121.7993 74.0194,-124.8996 74.0194,-124.8996 74.0194,-131.1004 74.0194,-131.1004 74.0194,-134.2007 70.919,-137.3011 67.8186,-137.3011"/>
<text text-anchor="middle" x="45.0064" y="-125.3" font-family="Helvetica,sans-Serif" font-size="9.00" fill="#000000">App.test.js</text>
</a>
</g>
</g>
<!-- src/App.test.js&#45;&gt;src/App.js -->
<g id="edge6" class="edge">
<title>src/App.test.js&#45;&gt;src/App.js</title>
<path fill="none" stroke="#000000" stroke-width="2" stroke-opacity="0.466667" d="M74.124,-128C79.6335,-128 85.4653,-128 91.1813,-128"/>
<polygon fill="#000000" fill-opacity="0.466667" stroke="#000000" stroke-width="2" stroke-opacity="0.466667" points="91.2505,-131.5001 101.2505,-128 91.2504,-124.5001 91.2505,-131.5001"/>
</g>
<!-- src/components/content/styles.scss -->
<g id="node5" class="node">
<title>src/components/content/styles.scss</title>
<g id="a_node5"><a xlink:href="src/components/content/styles.scss" xlink:title="styles.scss">
<path fill="#ffffcc" stroke="#000000" d="M318.8148,-198.3011C318.8148,-198.3011 272.2073,-198.3011 272.2073,-198.3011 269.1069,-198.3011 266.0066,-195.2007 266.0066,-192.1004 266.0066,-192.1004 266.0066,-185.8996 266.0066,-185.8996 266.0066,-182.7993 269.1069,-179.6989 272.2073,-179.6989 272.2073,-179.6989 318.8148,-179.6989 318.8148,-179.6989 321.9152,-179.6989 325.0155,-182.7993 325.0155,-185.8996 325.0155,-185.8996 325.0155,-192.1004 325.0155,-192.1004 325.0155,-195.2007 321.9152,-198.3011 318.8148,-198.3011"/>
<text text-anchor="middle" x="295.511" y="-186.3" font-family="Helvetica,sans-Serif" font-size="9.00" fill="#000000">styles.scss</text>
</a>
</g>
</g>
<!-- src/components/content/index.js&#45;&gt;src/components/content/styles.scss -->
<g id="edge10" class="edge">
<title>src/components/content/index.js&#45;&gt;src/components/content/styles.scss</title>
<path fill="none" stroke="#000000" stroke-width="2" stroke-opacity="0.466667" d="M247.5833,-189C250.2833,-189 253.0616,-189 255.856,-189"/>
<polygon fill="#000000" fill-opacity="0.466667" stroke="#000000" stroke-width="2" stroke-opacity="0.466667" points="255.9336,-192.5001 265.9336,-189 255.9335,-185.5001 255.9336,-192.5001"/>
</g>
<!-- src/images/email.png -->
<g id="node10" class="node">
<title>src/images/email.png</title>
<g id="a_node10"><a xlink:href="src/images/email.png" xlink:title="email.png">
<path fill="#ffffcc" stroke="#000000" d="M316.8172,-348.3011C316.8172,-348.3011 274.2049,-348.3011 274.2049,-348.3011 271.1045,-348.3011 268.0041,-345.2007 268.0041,-342.1004 268.0041,-342.1004 268.0041,-335.8996 268.0041,-335.8996 268.0041,-332.7993 271.1045,-329.6989 274.2049,-329.6989 274.2049,-329.6989 316.8172,-329.6989 316.8172,-329.6989 319.9176,-329.6989 323.018,-332.7993 323.018,-335.8996 323.018,-335.8996 323.018,-342.1004 323.018,-342.1004 323.018,-345.2007 319.9176,-348.3011 316.8172,-348.3011"/>
<text text-anchor="middle" x="295.511" y="-336.3" font-family="Helvetica,sans-Serif" font-size="9.00" fill="#000000">email.png</text>
</a>
</g>
</g>
<!-- src/components/content/index.js&#45;&gt;src/images/email.png -->
<g id="edge7" class="edge">
<title>src/components/content/index.js&#45;&gt;src/images/email.png</title>
<path fill="none" stroke="#000000" stroke-width="2" stroke-opacity="0.466667" d="M244.6654,-198.6949C245.7287,-199.6942 246.6887,-200.7928 247.504,-202 262.5871,-224.331 239.6675,-301.1968 255.504,-323 256.5618,-324.4564 257.7742,-325.7803 259.1029,-326.9839"/>
<polygon fill="#000000" fill-opacity="0.466667" stroke="#000000" stroke-width="2" stroke-opacity="0.466667" points="257.4363,-330.0768 267.7154,-332.6443 261.2809,-324.2271 257.4363,-330.0768"/>
</g>
<!-- src/images/github.png -->
<g id="node11" class="node">
<title>src/images/github.png</title>
<g id="a_node11"><a xlink:href="src/images/github.png" xlink:title="github.png">
<path fill="#ffffcc" stroke="#000000" d="M318.3314,-317.3011C318.3314,-317.3011 272.6907,-317.3011 272.6907,-317.3011 269.5904,-317.3011 266.49,-314.2007 266.49,-311.1004 266.49,-311.1004 266.49,-304.8996 266.49,-304.8996 266.49,-301.7993 269.5904,-298.6989 272.6907,-298.6989 272.6907,-298.6989 318.3314,-298.6989 318.3314,-298.6989 321.4317,-298.6989 324.5321,-301.7993 324.5321,-304.8996 324.5321,-304.8996 324.5321,-311.1004 324.5321,-311.1004 324.5321,-314.2007 321.4317,-317.3011 318.3314,-317.3011"/>
<text text-anchor="middle" x="295.511" y="-305.3" font-family="Helvetica,sans-Serif" font-size="9.00" fill="#000000">github.png</text>
</a>
</g>
</g>
<!-- src/components/content/index.js&#45;&gt;src/images/github.png -->
<g id="edge8" class="edge">
<title>src/components/content/index.js&#45;&gt;src/images/github.png</title>
<path fill="none" stroke="#000000" stroke-width="2" stroke-opacity="0.466667" d="M244.633,-198.717C245.7044,-199.7108 246.675,-200.8022 247.504,-202 258.9301,-218.5107 243.521,-275.8889 255.504,-292 256.196,-292.9304 256.9508,-293.8067 257.7584,-294.6322"/>
<polygon fill="#000000" fill-opacity="0.466667" stroke="#000000" stroke-width="2" stroke-opacity="0.466667" points="256.0342,-297.7067 266.1758,-300.7723 260.1595,-292.0514 256.0342,-297.7067"/>
</g>
<!-- src/images/linkedin.png -->
<g id="node12" class="node">
<title>src/images/linkedin.png</title>
<g id="a_node12"><a xlink:href="src/images/linkedin.png" xlink:title="linkedin.png">
<path fill="#ffffcc" stroke="#000000" d="M321.3244,-286.3011C321.3244,-286.3011 269.6977,-286.3011 269.6977,-286.3011 266.5973,-286.3011 263.4969,-283.2007 263.4969,-280.1004 263.4969,-280.1004 263.4969,-273.8996 263.4969,-273.8996 263.4969,-270.7993 266.5973,-267.6989 269.6977,-267.6989 269.6977,-267.6989 321.3244,-267.6989 321.3244,-267.6989 324.4248,-267.6989 327.5252,-270.7993 327.5252,-273.8996 327.5252,-273.8996 327.5252,-280.1004 327.5252,-280.1004 327.5252,-283.2007 324.4248,-286.3011 321.3244,-286.3011"/>
<text text-anchor="middle" x="295.511" y="-274.3" font-family="Helvetica,sans-Serif" font-size="9.00" fill="#000000">linkedin.png</text>
</a>
</g>
</g>
<!-- src/components/content/index.js&#45;&gt;src/images/linkedin.png -->
<g id="edge9" class="edge">
<title>src/components/content/index.js&#45;&gt;src/images/linkedin.png</title>
<path fill="none" stroke="#000000" stroke-width="2" stroke-opacity="0.466667" d="M243.5996,-198.3474C245.0273,-199.4447 246.3506,-200.6589 247.504,-202 255.3874,-211.1665 249.797,-217.3415 255.504,-228 261.7751,-239.7119 271.0527,-251.2964 279.0952,-260.2587"/>
<polygon fill="#000000" fill-opacity="0.466667" stroke="#000000" stroke-width="2" stroke-opacity="0.466667" points="276.6339,-262.7514 286.0122,-267.6807 281.7548,-257.9789 276.6339,-262.7514"/>
</g>
<!-- src/components/footer/styles.scss -->
<g id="node7" class="node">
<title>src/components/footer/styles.scss</title>
<g id="a_node7"><a xlink:href="src/components/footer/styles.scss" xlink:title="styles.scss">
<path fill="#ffffcc" stroke="#000000" d="M318.8148,-137.3011C318.8148,-137.3011 272.2073,-137.3011 272.2073,-137.3011 269.1069,-137.3011 266.0066,-134.2007 266.0066,-131.1004 266.0066,-131.1004 266.0066,-124.8996 266.0066,-124.8996 266.0066,-121.7993 269.1069,-118.6989 272.2073,-118.6989 272.2073,-118.6989 318.8148,-118.6989 318.8148,-118.6989 321.9152,-118.6989 325.0155,-121.7993 325.0155,-124.8996 325.0155,-124.8996 325.0155,-131.1004 325.0155,-131.1004 325.0155,-134.2007 321.9152,-137.3011 318.8148,-137.3011"/>
<text text-anchor="middle" x="295.511" y="-125.3" font-family="Helvetica,sans-Serif" font-size="9.00" fill="#000000">styles.scss</text>
</a>
</g>
</g>
<!-- src/components/footer/index.js&#45;&gt;src/components/footer/styles.scss -->
<g id="edge11" class="edge">
<title>src/components/footer/index.js&#45;&gt;src/components/footer/styles.scss</title>
<path fill="none" stroke="#000000" stroke-width="2" stroke-opacity="0.466667" d="M247.5833,-128C250.2833,-128 253.0616,-128 255.856,-128"/>
<polygon fill="#000000" fill-opacity="0.466667" stroke="#000000" stroke-width="2" stroke-opacity="0.466667" points="255.9336,-131.5001 265.9336,-128 255.9335,-124.5001 255.9336,-131.5001"/>
</g>
<!-- src/components/header/styles.scss -->
<g id="node9" class="node">
<title>src/components/header/styles.scss</title>
<g id="a_node9"><a xlink:href="src/components/header/styles.scss" xlink:title="styles.scss">
<path fill="#ffffcc" stroke="#000000" d="M318.8148,-76.3011C318.8148,-76.3011 272.2073,-76.3011 272.2073,-76.3011 269.1069,-76.3011 266.0066,-73.2007 266.0066,-70.1004 266.0066,-70.1004 266.0066,-63.8996 266.0066,-63.8996 266.0066,-60.7993 269.1069,-57.6989 272.2073,-57.6989 272.2073,-57.6989 318.8148,-57.6989 318.8148,-57.6989 321.9152,-57.6989 325.0155,-60.7993 325.0155,-63.8996 325.0155,-63.8996 325.0155,-70.1004 325.0155,-70.1004 325.0155,-73.2007 321.9152,-76.3011 318.8148,-76.3011"/>
<text text-anchor="middle" x="295.511" y="-64.3" font-family="Helvetica,sans-Serif" font-size="9.00" fill="#000000">styles.scss</text>
</a>
</g>
</g>
<!-- src/components/header/index.js&#45;&gt;src/components/header/styles.scss -->
<g id="edge12" class="edge">
<title>src/components/header/index.js&#45;&gt;src/components/header/styles.scss</title>
<path fill="none" stroke="#000000" stroke-width="2" stroke-opacity="0.466667" d="M247.5833,-67C250.2833,-67 253.0616,-67 255.856,-67"/>
<polygon fill="#000000" fill-opacity="0.466667" stroke="#000000" stroke-width="2" stroke-opacity="0.466667" points="255.9336,-70.5001 265.9336,-67 255.9335,-63.5001 255.9336,-70.5001"/>
</g>
<!-- src/index.css -->
<g id="node14" class="node">
<title>src/index.css</title>
<g id="a_node14"><a xlink:href="src/index.css" xlink:title="index.css">
<path fill="#ffffcc" stroke="#000000" d="M149.0577,-168.3011C149.0577,-168.3011 107.4592,-168.3011 107.4592,-168.3011 104.3588,-168.3011 101.2584,-165.2007 101.2584,-162.1004 101.2584,-162.1004 101.2584,-155.8996 101.2584,-155.8996 101.2584,-152.7993 104.3588,-149.6989 107.4592,-149.6989 107.4592,-149.6989 149.0577,-149.6989 149.0577,-149.6989 152.1581,-149.6989 155.2584,-152.7993 155.2584,-155.8996 155.2584,-155.8996 155.2584,-162.1004 155.2584,-162.1004 155.2584,-165.2007 152.1581,-168.3011 149.0577,-168.3011"/>
<text text-anchor="middle" x="128.2584" y="-156.3" font-family="Helvetica,sans-Serif" font-size="9.00" fill="#000000">index.css</text>
</a>
</g>
</g>
<!-- src/index.js -->
<g id="node15" class="node">
<title>src/index.js</title>
<g id="a_node15"><a xlink:href="src/index.js" xlink:title="index.js">
<path fill="#ffffcc" stroke="#000000" d="M65.8057,-168.3011C65.8057,-168.3011 24.2072,-168.3011 24.2072,-168.3011 21.1068,-168.3011 18.0064,-165.2007 18.0064,-162.1004 18.0064,-162.1004 18.0064,-155.8996 18.0064,-155.8996 18.0064,-152.7993 21.1068,-149.6989 24.2072,-149.6989 24.2072,-149.6989 65.8057,-149.6989 65.8057,-149.6989 68.9061,-149.6989 72.0064,-152.7993 72.0064,-155.8996 72.0064,-155.8996 72.0064,-162.1004 72.0064,-162.1004 72.0064,-165.2007 68.9061,-168.3011 65.8057,-168.3011"/>
<text text-anchor="middle" x="45.0064" y="-156.3" font-family="Helvetica,sans-Serif" font-size="9.00" fill="#000000">index.js</text>
</a>
</g>
</g>
<!-- src/index.js&#45;&gt;src/App.js -->
<g id="edge13" class="edge">
<title>src/index.js&#45;&gt;src/App.js</title>
<path fill="none" stroke="#000000" stroke-width="2" stroke-opacity="0.466667" d="M70.4372,-149.5305C77.7668,-146.8012 85.8901,-143.7764 93.675,-140.8776"/>
<polygon fill="#000000" fill-opacity="0.466667" stroke="#000000" stroke-width="2" stroke-opacity="0.466667" points="95.1195,-144.0746 103.2695,-137.305 92.6768,-137.5146 95.1195,-144.0746"/>
</g>
<!-- src/index.js&#45;&gt;src/index.css -->
<g id="edge14" class="edge">
<title>src/index.js&#45;&gt;src/index.css</title>
<path fill="none" stroke="#000000" stroke-width="2" stroke-opacity="0.466667" d="M72.2663,-159C78.2206,-159 84.622,-159 90.893,-159"/>
<polygon fill="#000000" fill-opacity="0.466667" stroke="#000000" stroke-width="2" stroke-opacity="0.466667" points="91.2218,-162.5001 101.2217,-159 91.2217,-155.5001 91.2218,-162.5001"/>
</g>
<!-- src/serviceWorker.js -->
<g id="node16" class="node">
<title>src/serviceWorker.js</title>
<g id="a_node16"><a xlink:href="src/serviceWorker.js" xlink:title="serviceWorker.js">
<path fill="#ffffcc" stroke="#000000" d="M163.5503,-199.3011C163.5503,-199.3011 92.9666,-199.3011 92.9666,-199.3011 89.8662,-199.3011 86.7659,-196.2007 86.7659,-193.1004 86.7659,-193.1004 86.7659,-186.8996 86.7659,-186.8996 86.7659,-183.7993 89.8662,-180.6989 92.9666,-180.6989 92.9666,-180.6989 163.5503,-180.6989 163.5503,-180.6989 166.6507,-180.6989 169.751,-183.7993 169.751,-186.8996 169.751,-186.8996 169.751,-193.1004 169.751,-193.1004 169.751,-196.2007 166.6507,-199.3011 163.5503,-199.3011"/>
<text text-anchor="middle" x="128.2584" y="-187.3" font-family="Helvetica,sans-Serif" font-size="9.00" fill="#000000">serviceWorker.js</text>
</a>
</g>
</g>
<!-- src/index.js&#45;&gt;src/serviceWorker.js -->
<g id="edge15" class="edge">
<title>src/index.js&#45;&gt;src/serviceWorker.js</title>
<path fill="none" stroke="#000000" stroke-width="2" stroke-opacity="0.466667" d="M70.4372,-168.4695C77.7668,-171.1988 85.8901,-174.2236 93.675,-177.1224"/>
<polygon fill="#000000" fill-opacity="0.466667" stroke="#000000" stroke-width="2" stroke-opacity="0.466667" points="92.6768,-180.4854 103.2695,-180.695 95.1195,-173.9254 92.6768,-180.4854"/>
</g>
</g>
</svg>
